<svg xmlns="http://www.w3.org/2000/svg" viewBox="0 0 116.31 121.79"><defs><style>.cls-1{fill:#83ccad;}.cls-2,.cls-7{fill:#fff;}.cls-2{stroke:#085f46;}.cls-2,.cls-5{stroke-linejoin:round;}.cls-2,.cls-3{stroke-width:2px;}.cls-3,.cls-4,.cls-8{fill:none;stroke-miterlimit:10;}.cls-3,.cls-5,.cls-8{stroke:#0a5f46;}.cls-4{stroke:#83ccad;}.cls-4,.cls-5{stroke-width:4px;}.cls-5{fill:#0c5f46;stroke-linecap:round;}.cls-6{fill:#0a5f46;}</style></defs><title>id-card</title><g id="Layer_2" data-name="Layer 2"><g id="Layer_1-2" data-name="Layer 1"><g id="id-card"><circle class="cls-1" cx="58.15" cy="63.64" r="58.15"/><g id="card"><rect class="cls-2" x="4.73" y="19.64" width="76.29" height="52.68"/><g id="line"><line class="cls-3" x1="36.12" y1="53.79" x2="73.4" y2="53.79"/><line class="cls-3" x1="13.12" y1="53.79" x2="28.88" y2="53.79"/><line class="cls-3" x1="46.33" y1="41.09" x2="71.4" y2="41.09"/><line class="cls-3" x1="46.33" y1="33.86" x2="64.33" y2="33.86"/><line class="cls-3" x1="46.33" y1="28.15" x2="64.65" y2="28.15"/><line class="cls-3" x1="39.27" y1="28.15" x2="41.92" y2="28.15"/><line class="cls-3" x1="39.27" y1="33.85" x2="41.92" y2="33.85"/><line class="cls-3" x1="39.27" y1="41.05" x2="41.92" y2="41.05"/><line class="cls-4" x1="13.1" y1="61.36" x2="73.4" y2="61.36"/><rect class="cls-5" x="5.75" y="15.39" width="74.46" height="3.35"/><rect class="cls-5" x="39.27" y="2" width="8.73" height="13.39"/></g><g id="profile"><circle class="cls-6" cx="22.74" cy="35.39" r="9.64"/><path class="cls-7" d="M22.74,37.75a9.64,9.64,0,0,0-7.54,3.64,9.61,9.61,0,0,0,15.08,0A9.64,9.64,0,0,0,22.74,37.75Z"/><circle class="cls-8" cx="22.74" cy="35.39" r="9.64"/><ellipse class="cls-7" cx="22.57" cy="32.74" rx="3.93" ry="4.59"/></g></g><g id="card-2" data-name="card"><rect class="cls-2" x="31.73" y="63.64" width="76.29" height="52.68"/><g id="line-2" data-name="line"><line class="cls-3" x1="63.12" y1="97.79" x2="100.4" y2="97.79"/><line class="cls-3" x1="40.12" y1="97.79" x2="55.88" y2="97.79"/><line class="cls-3" x1="73.33" y1="85.09" x2="98.4" y2="85.09"/><line class="cls-3" x1="73.33" y1="77.86" x2="91.33" y2="77.86"/><line class="cls-3" x1="73.33" y1="72.15" x2="91.65" y2="72.15"/><line class="cls-3" x1="66.27" y1="72.15" x2="68.92" y2="72.15"/><line class="cls-3" x1="66.27" y1="77.85" x2="68.92" y2="77.85"/><line class="cls-3" x1="66.27" y1="85.05" x2="68.92" y2="85.05"/><line class="cls-4" x1="40.1" y1="106.46" x2="100.4" y2="106.46"/></g><g id="profile-2" data-name="profile"><circle class="cls-6" cx="49.74" cy="79.39" r="9.64"/><path class="cls-7" d="M49.74,81.75a9.64,9.64,0,0,0-7.54,3.64,9.61,9.61,0,0,0,15.08,0A9.64,9.64,0,0,0,49.74,81.75Z"/><circle class="cls-8" cx="49.74" cy="79.39" r="9.64"/><ellipse class="cls-7" cx="49.57" cy="76.74" rx="3.93" ry="4.59"/></g></g></g></g></g></svg>