<svg xmlns="http://www.w3.org/2000/svg" viewBox="0 0 116.31 116.31"><defs><style>.cls-1{fill:#83ccad;}.cls-2,.cls-4,.cls-9{fill:#fff;}.cls-2,.cls-3,.cls-5,.cls-6{stroke:#0a5f46;}.cls-2,.cls-3,.cls-6,.cls-7{stroke-linejoin:round;}.cls-2,.cls-3,.cls-5,.cls-6,.cls-7{stroke-width:2px;}.cls-3,.cls-8{fill:#0a5f46;}.cls-5,.cls-6,.cls-7{fill:none;}.cls-5{stroke-miterlimit:10;}.cls-7{stroke:#83ccad;}.cls-9{font-size:19.38px;font-family:MyriadPro-Regular, Myriad Pro;}</style></defs><title>invoice</title><g id="Layer_2" data-name="Layer 2"><g id="Layer_1-2" data-name="Layer 1"><g id="invoice"><circle class="cls-1" cx="58.15" cy="58.15" r="58.15"/><rect class="cls-2" x="25.63" y="5.14" width="75.86" height="83.69"/><path class="cls-3" d="M8.47,88.83h93a0,0,0,0,1,0,0v0a20.34,20.34,0,0,1-20.34,20.34H28.81A20.34,20.34,0,0,1,8.47,88.83v0A0,0,0,0,1,8.47,88.83Z"/><path class="cls-4" d="M71.64,68.27V90.92a14.44,14.44,0,0,0,28.87,0V68.27Z"/><path class="cls-5" d="M100.81,5.15c-1.44,0-1.44-2-2.88-2s-1.44,2-2.88,2-1.45-2-2.89-2-1.44,2-2.88,2-1.44-2-2.88-2-1.45,2-2.89,2-1.44-2-2.88-2-1.44,2-2.89,2-1.44-2-2.88-2-1.44,2-2.88,2-1.44-2-2.88-2-1.44,2-2.88,2-1.44-2-2.89-2-1.44,2-2.88,2-1.44-2-2.88-2-1.45,2-2.89,2-1.44-2-2.88-2-1.45,2-2.89,2-1.44-2-2.89-2-1.44,2-2.88,2-1.45-2-2.89-2-1.44,2-2.89,2-1.44-2-2.88-2-1.45,2-2.89,2-1.45-2-2.89-2-1.45,2-2.9,2"/><g id="line"><line class="cls-6" x1="33.56" y1="52.85" x2="75.9" y2="52.85"/><line class="cls-6" x1="33.56" y1="83.05" x2="75.9" y2="83.05"/><line class="cls-6" x1="33.56" y1="68.05" x2="75.9" y2="68.05"/><line class="cls-7" x1="33.56" y1="75.65" x2="66.66" y2="75.65"/><line class="cls-7" x1="33.56" y1="60.15" x2="66.66" y2="60.15"/><line class="cls-6" x1="82.81" y1="52.85" x2="91.73" y2="52.85"/><line class="cls-7" x1="82.81" y1="59.85" x2="91.73" y2="59.85"/><line class="cls-6" x1="82.81" y1="67.85" x2="91.73" y2="67.85"/><line class="cls-7" x1="82.81" y1="75.85" x2="91.73" y2="75.85"/><line class="cls-6" x1="82.81" y1="82.85" x2="91.73" y2="82.85"/><g id="dotted"><line class="cls-6" x1="33.56" y1="43.12" x2="36.23" y2="43.12"/><line class="cls-6" x1="38.56" y1="43.12" x2="41.23" y2="43.12"/><line class="cls-6" x1="43.56" y1="43.12" x2="46.23" y2="43.12"/><line class="cls-6" x1="48.56" y1="43.12" x2="51.23" y2="43.12"/><line class="cls-6" x1="54.56" y1="43.12" x2="57.23" y2="43.12"/><line class="cls-6" x1="59.56" y1="43.12" x2="62.23" y2="43.12"/><line class="cls-6" x1="64.56" y1="43.12" x2="67.23" y2="43.12"/><line class="cls-6" x1="69.56" y1="43.12" x2="72.23" y2="43.12"/><line class="cls-6" x1="74.56" y1="43.12" x2="77.23" y2="43.12"/><line class="cls-6" x1="79.56" y1="43.12" x2="82.23" y2="43.12"/><line class="cls-6" x1="84.56" y1="43.12" x2="87.23" y2="43.12"/><line class="cls-6" x1="89.56" y1="43.12" x2="92.23" y2="43.12"/></g><line class="cls-6" x1="64.31" y1="18.91" x2="88.24" y2="18.91"/><line class="cls-6" x1="64.31" y1="29.19" x2="88.24" y2="29.19"/><line class="cls-6" x1="64.31" y1="23.56" x2="84.09" y2="23.56"/><line class="cls-6" x1="58.28" y1="18.91" x2="60.95" y2="18.91"/><line class="cls-6" x1="58.28" y1="23.52" x2="60.95" y2="23.52"/><line class="cls-6" x1="58.28" y1="29.15" x2="60.95" y2="29.15"/></g><g id="dollar"><circle class="cls-8" cx="42.18" cy="25.1" r="10.2"/><text class="cls-9" transform="translate(37.21 30.83)">$</text></g></g></g></g></svg>