<svg xmlns="http://www.w3.org/2000/svg" viewBox="0 0 116.31 116.31"><defs><style>.cls-1{fill:#83ccad;}.cls-2,.cls-5{fill:#fff;}.cls-2,.cls-3,.cls-5,.cls-6{stroke:#0a5f46;}.cls-2,.cls-3,.cls-6{stroke-linejoin:round;}.cls-3,.cls-6{fill:none;}.cls-3{stroke-width:2px;}.cls-4{fill:#0a5f46;}.cls-5{stroke-miterlimit:10;}.cls-6{stroke-width:4px;}</style></defs><title>passport_2</title><g id="Layer_2" data-name="Layer 2"><g id="Layer_1-2" data-name="Layer 1"><g id="passport"><circle class="cls-1" cx="58.15" cy="58.15" r="58.15"/><rect class="cls-2" x="21.25" y="4.15" width="73.81" height="105.02"/><circle class="cls-3" cx="57.54" cy="57.94" r="11.92"/><path class="cls-4" d="M58.72,62.45a1.43,1.43,0,0,0,.16-1,.48.48,0,0,0-.31-.42l.06.14a.52.52,0,0,1,0,.32.15.15,0,0,0,0,.13.56.56,0,0,1-.21.65.41.41,0,0,0-.11.12,2.13,2.13,0,0,0-.16.25c-.08,0-.15-.09-.11-.21h0l-.28.78a.35.35,0,0,1-.43.22,1,1,0,0,1-.28-.14s0-.07,0-.1,0-.18.06-.28L57,62.89s-.06.09-.08.08a.13.13,0,0,1-.1-.07,1.31,1.31,0,0,1-.06-.27,1.45,1.45,0,0,0,0-.29.61.61,0,0,1,.12-.67.91.91,0,0,0,.11-.16.83.83,0,0,0-.33.77,1.1,1.1,0,0,1,0,.54.3.3,0,0,0,0,.29.14.14,0,0,1,0,.22l-.19.12-.48.29c-.13.08-.17.07-.23-.07a.39.39,0,0,1,0-.35,1.73,1.73,0,0,0,.1-.45c0-.27,0-.54.07-.81h0a.88.88,0,0,0-.1.22.09.09,0,0,0,0,.09c.14.21,0,.38,0,.56h0V62.7a.14.14,0,0,0-.06.21.3.3,0,0,1,0,.29c-.08.16-.14.33-.21.49s-.08.1-.1.09a.18.18,0,0,1-.1-.11.62.62,0,0,1,0-.27.37.37,0,0,0-.06-.37c0,.28-.09.53-.12.78s-.07.17-.18.18-.1,0-.1-.09a.33.33,0,0,0,0-.14c0-.11,0-.19-.15-.21a.22.22,0,0,1-.19-.22c0-.1,0-.2,0-.3a2.87,2.87,0,0,0,0-.31.2.2,0,0,1,0-.22.16.16,0,0,0,0-.12,1.18,1.18,0,0,0-.11-.19,1,1,0,0,1-.16-.49c0-.39-.1-.78-.12-1.18a1.05,1.05,0,0,0-.22-.57s0-.1,0-.15a.51.51,0,0,1,.17-.4c.06,0,.09-.11.17-.2l-.46-.08a.4.4,0,0,1-.11,0c-.18,0-.23-.13-.16-.3s.09-.19.13-.29a1.13,1.13,0,0,0,0-.15l-.18-.09s-.05,0-.08-.06a.7.7,0,0,1-.31-.88c0-.15.09-.26.26-.29s.12-.09.15-.15a.46.46,0,0,0,0-.23.14.14,0,0,0,0-.11.3.3,0,0,1,0-.42c.12-.09,0-.17,0-.24a.19.19,0,0,0-.2-.11,1,1,0,0,1-.49-.11,4.71,4.71,0,0,0-1-.52.25.25,0,0,1-.14-.16,3.38,3.38,0,0,1-.11-.34.39.39,0,0,1,0-.23c.06-.11.16-.21.22-.32a.32.32,0,0,0,0-.17c0-.06,0-.1,0-.12s.13-.11.21,0l.17.16a.1.1,0,0,0,.17,0,5.21,5.21,0,0,0,.28-.52.67.67,0,0,0,0-.28c0-.13,0-.16.14-.15.36,0,.71,0,1.06.06.19,0,.21,0,.28-.17s0-.12.08-.19l-.1,0a.47.47,0,0,1-.37-.22.27.27,0,0,1,0-.16c0-.08,0-.16,0-.23a.2.2,0,0,0-.22,0,.64.64,0,0,1-.61-.1c-.1-.11-.23-.2-.22-.38s0-.08-.08-.11l-.36-.33a.14.14,0,0,0-.2,0c-.18.09-.22.07-.3-.12a.58.58,0,0,1,0-.39c0-.14.09-.27.13-.41a.41.41,0,0,1,.25-.28l.2-.1a.28.28,0,0,0,.14-.18.69.69,0,0,1,.21-.24,1.63,1.63,0,0,1,.23-.11c0-.2-.08-.28-.26-.32s-.12,0-.18.08c-.09-.12,0-.37.16-.55.07.3.31.4.55.5a.37.37,0,0,1,.26.29c0,.26.25.33.45.38a1.5,1.5,0,0,0,.42,0s.06,0,.07,0,0-.08,0-.1L54,49.35c-.1-.07-.11-.14,0-.24a.08.08,0,0,1,.13,0c.3.14.3.14.36.46a.78.78,0,0,0,.39.65,1.07,1.07,0,0,0,.75.24c.12,0,.19-.09.26-.18s0-.09,0-.12,0-.24,0-.35.1-.08.14,0a.31.31,0,0,0,.2.17.23.23,0,0,1,.12.1l.24.52a.29.29,0,0,1,0,.32.29.29,0,0,0,0,.24c0,.12.07.25.11.38a1.8,1.8,0,0,1,0,.73,1.08,1.08,0,0,0,0,.31c0,.07,0,.12.12.1a.84.84,0,0,1,.44.1c.34.13.69.24,1,.36a.11.11,0,0,0,.11,0,1,1,0,0,1,.58,0A2.67,2.67,0,0,0,60,53a2.6,2.6,0,0,1,.56-.06.25.25,0,0,1,.15,0,2.1,2.1,0,0,0,1.24.1c.3-.05.61-.05.92-.07h.08a3.06,3.06,0,0,1,.85.42s.06.09.09.13a1.33,1.33,0,0,0,.14.19c.07.07.12.13.06.23a.26.26,0,0,1-.29.07l-.27-.14c-.07,0-.11,0-.1.08a1.54,1.54,0,0,1-.12.82.82.82,0,0,1-.16.25c-.05.06-.08.1-.06.17a.25.25,0,0,1-.14.32,1.55,1.55,0,0,1-.22.12s-.08,0-.12,0a.12.12,0,0,0-.08,0s0,0,0,.08,0,.26-.05.39a.14.14,0,0,1-.16.11,1,1,0,0,0-.59.1.8.8,0,0,1-.61,0,.15.15,0,0,0-.15,0,2.67,2.67,0,0,0-.32.43.77.77,0,0,0-.06.23c0,.1,0,.19-.05.28s0,.07,0,.07c-.21.07-.13.25-.12.37a.86.86,0,0,0,.12.35,2.32,2.32,0,0,1,.28.84c0,.14.06.28.1.41a.33.33,0,0,0,.12.15c0-.21-.14-.43.07-.63a1.62,1.62,0,0,1,.18.2c.06.14.1.29.15.43a1.19,1.19,0,0,0,.08.2c.09.18.14.19.32.1a.78.78,0,0,0,.37-.3.16.16,0,0,0,0-.13c0-.11-.07-.21-.09-.32a.43.43,0,0,1,0-.25.66.66,0,0,1,.36-.44.34.34,0,0,0,.16-.35c0-.08,0-.15,0-.23a1.43,1.43,0,0,1,0-.29h0l.16.17a.14.14,0,0,0,.22,0,2.18,2.18,0,0,1,.22-.21v0a.65.65,0,0,0,.2,0c.1,0,.13,0,.14.12s0,.44.1.66.11.31.15.47a.71.71,0,0,1,0,.2,1.57,1.57,0,0,0,0,.23c0,.23,0,.46.06.69a.65.65,0,0,0,0,.13,5.61,5.61,0,0,1,.29.54,1.32,1.32,0,0,1,.1.39c0,.28.09.56.13.83l.06.54c0,.22,0,.44,0,.67s0,.27,0,.4c0,.28,0,.56,0,.84s.08.41.12.62c0,0,0,0,0,0v.09l-.22.13c0-.12-.09-.22-.14-.32a.21.21,0,0,0-.07-.11l-.33-.2a.18.18,0,0,0-.12,0,.71.71,0,0,0-.38.38.94.94,0,0,0,0,.64,1.38,1.38,0,0,1,.1.49,2.46,2.46,0,0,0,.07.29l.12.39h0l-.16-.24-.56-.95a.3.3,0,0,1-.05-.19.78.78,0,0,0-.16-.55s0-.08-.07-.12a.14.14,0,0,1,0-.16,1,1,0,0,0,.16-.64h0a.9.9,0,0,0-.08.23c0,.19,0,.36-.3.41a.6.6,0,0,1-.08-.16c0-.17,0-.34,0-.51a.24.24,0,0,1,0-.08c0-.13.09-.15.2-.09l.07,0v-.17l-.14.05a1.8,1.8,0,0,0-.12-1c0-.09-.08-.17-.11-.26S62,62,62,61.8a3.19,3.19,0,0,0-.83-1.31l-.49.36a.32.32,0,0,0-.08.14c0,.08-.07.12-.15.12h-.34l-.24,0a.25.25,0,0,1-.15,0,2.22,2.22,0,0,1-.51-.59.64.64,0,0,1-.06-.18,1.5,1.5,0,0,0-.28-.6.28.28,0,0,1-.06-.2,1.72,1.72,0,0,0-.08-.81.81.81,0,0,1,0-.31c0-.09.1-.1.18-.09s.13,0,.13-.12-.21.11-.34.08,0,.16,0,.24-.06.13-.16.1L58,58.52a.21.21,0,0,0-.08,0,1,1,0,0,0,.53.36.3.3,0,0,1,.29.36v0c0,.24-.1.32-.33.34s-.13.05-.09.14a.53.53,0,0,1,0,.39.31.31,0,0,0,0,.1c-.13.21-.13.24.08.46,0,0,0-.06,0-.07s-.08-.19-.06-.31a.31.31,0,0,1,0-.09.63.63,0,0,1,.58,0c.09,0,.08.06,0,.2s.06.1.06.14a1.33,1.33,0,0,0,.45.73.26.26,0,0,1,.08.21,2.8,2.8,0,0,1-.13.86,1,1,0,0,1-.39.49s-.13,0-.15,0a.25.25,0,0,1-.1-.17.92.92,0,0,1,0-.29ZM58.51,61l.13-.48h-.08l-.09.34h0Zm-.14-2.92c.22.13.32.1.3-.05Zm-2.87,4a.57.57,0,0,0,.08.42Z"/><path class="cls-5" d="M60.08,61l.06.1c.06.18.13.35.18.53a.51.51,0,0,1-.18.58l-.23.15c.1-.45,0-.91.13-1.36Z"/><path class="cls-5" d="M61.08,60.66a2.48,2.48,0,0,1,.36.68.14.14,0,0,1-.09.18.22.22,0,0,1-.16,0A.62.62,0,0,1,61.08,60.66Z"/><path class="cls-5" d="M58.73,62.15l-.15.34c0,.06,0,.17-.16.14a.22.22,0,0,1-.05-.27,1.89,1.89,0,0,1,.31-.25l0,0Z"/><line class="cls-6" x1="45.79" y1="19.31" x2="69.42" y2="19.31"/><line class="cls-6" x1="45.79" y1="26.43" x2="69.42" y2="26.43"/><line class="cls-6" x1="37.28" y1="88.11" x2="77.12" y2="88.11"/><line class="cls-6" x1="31.97" y1="93.22" x2="83.05" y2="93.22"/></g></g></g></svg>