<svg xmlns="http://www.w3.org/2000/svg" viewBox="0 0 116.31 122.23"><defs><style>.cls-1{fill:#83ccad;}.cls-2,.cls-4{fill:#fff;}.cls-2,.cls-5{stroke:#0a5f46;}.cls-2{stroke-linejoin:round;}.cls-2,.cls-6{stroke-width:2px;}.cls-3{fill:#0a5f46;}.cls-4{font-size:14px;font-family:MyriadPro-Regular, Myriad Pro;}.cls-5,.cls-6,.cls-7,.cls-8{fill:none;stroke-miterlimit:10;}.cls-6,.cls-7,.cls-8{stroke:#83ccad;}.cls-7{stroke-width:3px;}.cls-8{stroke-width:4px;}</style></defs><title>tax-form</title><g id="Layer_2" data-name="Layer 2"><g id="Layer_1-2" data-name="Layer 1"><circle class="cls-1" cx="58.15" cy="64.08" r="58.15"/><rect class="cls-2" x="21.78" y="11.06" width="74.25" height="104.04"/><rect class="cls-2" x="27.56" y="11.06" width="62.36" height="93.87"/><g id="dollar"><circle class="cls-3" cx="45.01" cy="32.56" r="10"/><text class="cls-4" transform="translate(39.13 36.96)">%</text></g><g id="line"><line class="cls-5" x1="64.63" y1="24.86" x2="78.35" y2="24.86"/><line class="cls-5" x1="64.63" y1="36.86" x2="78.35" y2="36.86"/><line class="cls-5" x1="64.63" y1="30.21" x2="73.84" y2="30.21"/><line class="cls-5" x1="36.63" y1="94.86" x2="53.92" y2="94.86"/><line class="cls-6" x1="36.63" y1="52.07" x2="64.63" y2="52.07"/><line class="cls-6" x1="36.63" y1="62.07" x2="64.63" y2="62.07"/><line class="cls-6" x1="36.63" y1="71.57" x2="64.63" y2="71.57"/><line class="cls-6" x1="71.78" y1="52.07" x2="81.63" y2="52.07"/><line class="cls-6" x1="72.78" y1="62.07" x2="82.63" y2="62.07"/><line class="cls-6" x1="72.78" y1="71.57" x2="82.63" y2="71.57"/><line class="cls-7" x1="36.63" y1="82.07" x2="48.78" y2="82.07"/><line class="cls-8" x1="58.9" y1="82.07" x2="82.63" y2="82.07"/></g><path class="cls-3" d="M42.82,16.29H74.87L75,10a6.37,6.37,0,0,0-9.78-3.41V6.38a6.38,6.38,0,1,0-12.75,0s0,.07,0,.11A6.38,6.38,0,0,0,42.73,10"/></g></g></svg>