<?xml version="1.0" encoding="UTF-8"?>
<svg width="182px" height="135px" viewBox="0 0 182 135" version="1.1" xmlns="http://www.w3.org/2000/svg" xmlns:xlink="http://www.w3.org/1999/xlink">
    <!-- Generator: Sketch 63.1 (92452) - https://sketch.com -->
    <title>Mini CTA section</title>
    <desc>Created with Sketch.</desc>
    <g id="Page-1" stroke="none" stroke-width="1" fill="none" fill-rule="evenodd">
        <g id="agency-approved-final-send" transform="translate(-139.000000, -5181.000000)" fill="#4A90E2">
            <g id="Section-5" transform="translate(-100.000000, 5181.000000)">
                <g id="Group-9">
                    <g id="Mini-CTA-section" transform="translate(239.000000, 0.000000)">
                        <path d="M123.270537,152.914103 C124.684786,152.914103 125.832196,154.052473 125.832196,155.455581 C125.832196,156.86163 124.684786,158 123.270537,158 C121.853322,158 120.708877,156.86163 120.708877,155.455581 C120.708877,154.052473 121.853322,152.914103 123.270537,152.914103 Z M155.43834,152.914103 C156.855555,152.914103 158,154.052473 158,155.455581 C158,156.86163 156.855555,158 155.43834,158 C154.021126,158 152.876681,156.86163 152.876681,155.455581 C152.876681,154.052473 154.021126,152.914103 155.43834,152.914103 Z M139.354439,152.914103 C140.771653,152.914103 141.916098,154.052473 141.916098,155.455581 C141.916098,156.86163 140.771653,158 139.354439,158 C137.937224,158 136.792779,156.86163 136.792779,155.455581 C136.792779,154.052473 137.937224,152.914103 139.354439,152.914103 Z M75.0158666,152.914103 C76.433081,152.914103 77.5775262,154.052473 77.5775262,155.455581 C77.5775262,156.86163 76.433081,158 75.0158666,158 C73.5986521,158 72.4542069,156.86163 72.4542069,155.455581 C72.4542069,154.052473 73.5986521,152.914103 75.0158666,152.914103 Z M107.18367,152.914103 C108.600885,152.914103 109.74533,154.052473 109.74533,155.455581 C109.74533,156.86163 108.600885,158 107.18367,158 C105.769421,158 104.622011,156.86163 104.622011,155.455581 C104.622011,154.052473 105.769421,152.914103 107.18367,152.914103 Z M91.0997683,152.914103 C92.5169828,152.914103 93.661428,154.052473 93.661428,155.455581 C93.661428,156.86163 92.5169828,158 91.0997683,158 C89.6825539,158 88.5381087,156.86163 88.5381087,155.455581 C88.5381087,154.052473 89.6825539,152.914103 91.0997683,152.914103 Z M26.5616596,152.914103 C27.9788741,152.914103 29.1233193,154.052473 29.1233193,155.455581 C29.1233193,156.86163 27.9788741,158 26.5616596,158 C25.14741,158 24,156.86163 24,155.455581 C24,154.052473 25.14741,152.914103 26.5616596,152.914103 Z M58.7321316,152.914103 C60.1493461,152.914103 61.2937912,154.052473 61.2937912,155.455581 C61.2937912,156.86163 60.1493461,158 58.7321316,158 C57.3149171,158 56.170472,156.86163 56.170472,155.455581 C56.170472,154.052473 57.3149171,152.914103 58.7321316,152.914103 Z M42.6482298,152.914103 C44.0624794,152.914103 45.2098894,154.052473 45.2098894,155.455581 C45.2098894,156.86163 44.0624794,158 42.6482298,158 C41.2310153,158 40.0865702,156.86163 40.0865702,155.455581 C40.0865702,154.052473 41.2310153,152.914103 42.6482298,152.914103 Z M122.963671,136.583636 C123.855308,136.583636 124.638975,137.034233 125.097597,137.717863 C125.551717,138.175674 125.832196,138.804677 125.832196,139.498394 C125.832196,140.904443 124.684786,142.042813 123.270537,142.042813 C122.381537,142.042813 121.599869,141.594877 121.140688,140.913918 C120.683809,140.454612 120.402012,139.822818 120.402012,139.125114 C120.402012,137.722006 121.546457,136.583636 122.963671,136.583636 Z M155.43834,136.956916 C156.855555,136.956916 158,138.095286 158,139.498394 C158,140.904443 156.855555,142.042813 155.43834,142.042813 C154.021126,142.042813 152.876681,140.904443 152.876681,139.498394 C152.876681,138.095286 154.021126,136.956916 155.43834,136.956916 Z M139.047573,136.583636 C139.940528,136.583636 140.726371,137.035566 141.185579,137.720897 C141.637972,138.179342 141.916098,138.806699 141.916098,139.498394 C141.916098,140.904443 140.771653,142.042813 139.354439,142.042813 C138.463681,142.042813 137.68068,141.593104 137.22187,140.909876 C136.767211,140.451859 136.485913,139.821298 136.485913,139.125114 C136.485913,137.722006 137.633324,136.583636 139.047573,136.583636 Z M26.5616596,136.956916 C27.9788741,136.956916 29.1233193,138.095286 29.1233193,139.498394 C29.1233193,140.904443 27.9788741,142.042813 26.5616596,142.042813 C25.14741,142.042813 24,140.904443 24,139.498394 C24,138.095286 25.14741,136.956916 26.5616596,136.956916 Z M58.7321316,136.956916 C60.1493461,136.956916 61.2937912,138.095286 61.2937912,139.498394 C61.2937912,140.904443 60.1493461,142.042813 58.7321316,142.042813 C57.3149171,142.042813 56.170472,140.904443 56.170472,139.498394 C56.170472,138.095286 57.3149171,136.956916 58.7321316,136.956916 Z M42.6482298,136.956916 C44.0624794,136.956916 45.2098894,138.095286 45.2098894,139.498394 C45.2098894,140.904443 44.0624794,142.042813 42.6482298,142.042813 C41.2310153,142.042813 40.0865702,140.904443 40.0865702,139.498394 C40.0865702,138.095286 41.2310153,136.956916 42.6482298,136.956916 Z M75.0158666,136.956916 C76.433081,136.956916 77.5775262,138.095286 77.5775262,139.498394 C77.5775262,140.904443 76.433081,142.042813 75.0158666,142.042813 C73.5986521,142.042813 72.4542069,140.904443 72.4542069,139.498394 C72.4542069,138.095286 73.5986521,136.956916 75.0158666,136.956916 Z M106.87977,136.583636 C107.774043,136.583636 108.559707,137.036902 109.017756,137.723934 C109.468423,138.182094 109.74533,138.808216 109.74533,139.498394 C109.74533,140.904443 108.600885,142.042813 107.18367,142.042813 C106.29346,142.042813 105.508977,141.591772 105.049835,140.906841 C104.597457,140.449105 104.31811,139.819778 104.31811,139.125114 C104.31811,137.722006 105.462555,136.583636 106.87977,136.583636 Z M91.0997683,136.956916 C92.5169828,136.956916 93.661428,138.095286 93.661428,139.498394 C93.661428,140.904443 92.5169828,142.042813 91.0997683,142.042813 C89.6825539,142.042813 88.5381087,140.904443 88.5381087,139.498394 C88.5381087,138.095286 89.6825539,136.956916 91.0997683,136.956916 Z M26.5616596,120.996787 C27.9788741,120.996787 29.1233193,122.138099 29.1233193,123.538265 C29.1233193,124.944314 27.9788741,126.082684 26.5616596,126.082684 C25.14741,126.082684 24,124.944314 24,123.538265 C24,122.138099 25.14741,120.996787 26.5616596,120.996787 Z M122.963671,120.623508 C123.855308,120.623508 124.638975,121.075269 125.097597,121.75903 C125.551717,122.217016 125.832196,122.846003 125.832196,123.538265 C125.832196,124.944314 124.684786,126.082684 123.270537,126.082684 C122.381537,126.082684 121.599869,125.634749 121.140688,124.95379 C120.683809,124.494484 120.402012,123.86269 120.402012,123.164985 C120.402012,121.764819 121.546457,120.623508 122.963671,120.623508 Z M106.87977,120.623508 C107.774043,120.623508 108.559707,121.077945 109.017756,121.765102 C109.468423,122.223436 109.74533,122.849535 109.74533,123.538265 C109.74533,124.944314 108.600885,126.082684 107.18367,126.082684 C106.29346,126.082684 105.508977,125.631643 105.049835,124.946713 C104.597457,124.488976 104.31811,123.85965 104.31811,123.164985 C104.31811,121.764819 105.462555,120.623508 106.87977,120.623508 Z M155.43834,120.996787 C156.855555,120.996787 158,122.138099 158,123.538265 C158,124.944314 156.855555,126.082684 155.43834,126.082684 C154.021126,126.082684 152.876681,124.944314 152.876681,123.538265 C152.876681,122.138099 154.021126,120.996787 155.43834,120.996787 Z M58.7321316,120.996787 C60.1493461,120.996787 61.2937912,122.138099 61.2937912,123.538265 C61.2937912,124.944314 60.1493461,126.082684 58.7321316,126.082684 C57.3149171,126.082684 56.170472,124.944314 56.170472,123.538265 C56.170472,122.138099 57.3149171,120.996787 58.7321316,120.996787 Z M139.047573,120.623508 C139.940528,120.623508 140.726371,121.076606 141.185579,121.762065 C141.637972,122.220684 141.916098,122.848021 141.916098,123.538265 C141.916098,124.944314 140.771653,126.082684 139.354439,126.082684 C138.463681,126.082684 137.68068,125.632975 137.22187,124.949748 C136.767211,124.49173 136.485913,123.86117 136.485913,123.164985 C136.485913,121.764819 137.633324,120.623508 139.047573,120.623508 Z M75.0158666,120.996787 C76.433081,120.996787 77.5775262,122.138099 77.5775262,123.538265 C77.5775262,124.944314 76.433081,126.082684 75.0158666,126.082684 C73.5986521,126.082684 72.4542069,124.944314 72.4542069,123.538265 C72.4542069,122.138099 73.5986521,120.996787 75.0158666,120.996787 Z M91.0997683,120.996787 C92.5169828,120.996787 93.661428,122.138099 93.661428,123.538265 C93.661428,124.944314 92.5169828,126.082684 91.0997683,126.082684 C89.6825539,126.082684 88.5381087,124.944314 88.5381087,123.538265 C88.5381087,122.138099 89.6825539,120.996787 91.0997683,120.996787 Z M42.6482298,120.996787 C44.0624794,120.996787 45.2098894,122.138099 45.2098894,123.538265 C45.2098894,124.944314 44.0624794,126.082684 42.6482298,126.082684 C41.2310153,126.082684 40.0865702,124.944314 40.0865702,123.538265 C40.0865702,122.138099 41.2310153,120.996787 42.6482298,120.996787 Z M75.0158666,105.0396 C76.433081,105.0396 77.5775262,106.17797 77.5775262,107.581078 C77.5775262,108.987127 76.433081,110.125497 75.0158666,110.125497 C73.5986521,110.125497 72.4542069,108.987127 72.4542069,107.581078 C72.4542069,106.17797 73.5986521,105.0396 75.0158666,105.0396 Z M106.87977,104.666321 C107.773603,104.666321 108.558935,105.119141 109.01708,105.805606 C109.468017,106.263861 109.74533,106.890395 109.74533,107.581078 C109.74533,108.987127 108.600885,110.125497 107.18367,110.125497 C106.294651,110.125497 105.511076,109.675662 105.051679,108.992273 C104.597865,108.532707 104.31811,107.902969 104.31811,107.207798 C104.31811,105.804691 105.462555,104.666321 106.87977,104.666321 Z M155.43834,105.0396 C156.855555,105.0396 158,106.17797 158,107.581078 C158,108.987127 156.855555,110.125497 155.43834,110.125497 C154.021126,110.125497 152.876681,108.987127 152.876681,107.581078 C152.876681,106.17797 154.021126,105.0396 155.43834,105.0396 Z M26.5616596,105.0396 C27.9788741,105.0396 29.1233193,106.17797 29.1233193,107.581078 C29.1233193,108.987127 27.9788741,110.125497 26.5616596,110.125497 C25.14741,110.125497 24,108.987127 24,107.581078 C24,106.17797 25.14741,105.0396 26.5616596,105.0396 Z M58.7321316,105.0396 C60.1493461,105.0396 61.2937912,106.17797 61.2937912,107.581078 C61.2937912,108.987127 60.1493461,110.125497 58.7321316,110.125497 C57.3149171,110.125497 56.170472,108.987127 56.170472,107.581078 C56.170472,106.17797 57.3149171,105.0396 58.7321316,105.0396 Z M122.963671,104.666321 C123.854869,104.666321 124.638203,105.116473 125.096919,105.799537 C125.551717,106.258359 125.832196,106.887361 125.832196,107.581078 C125.832196,108.987127 124.684786,110.125497 123.270537,110.125497 C122.38227,110.125497 121.601159,109.6783 121.141825,108.998288 C120.684218,108.538214 120.402012,107.90601 120.402012,107.207798 C120.402012,105.804691 121.546457,104.666321 122.963671,104.666321 Z M139.047573,104.666321 C139.940089,104.666321 140.725598,105.117806 141.184901,105.80257 C141.637566,106.26111 141.916098,106.888878 141.916098,107.581078 C141.916098,108.987127 140.771653,110.125497 139.354439,110.125497 C138.464864,110.125497 137.68276,109.676982 137.2237,108.995282 C136.767621,108.535461 136.485913,107.904489 136.485913,107.207798 C136.485913,105.804691 137.633324,104.666321 139.047573,104.666321 Z M91.0997683,105.0396 C92.5169828,105.0396 93.661428,106.17797 93.661428,107.581078 C93.661428,108.987127 92.5169828,110.125497 91.0997683,110.125497 C89.6825539,110.125497 88.5381087,108.987127 88.5381087,107.581078 C88.5381087,106.17797 89.6825539,105.0396 91.0997683,105.0396 Z M42.6482298,105.0396 C44.0624794,105.0396 45.2098894,106.17797 45.2098894,107.581078 C45.2098894,108.987127 44.0624794,110.125497 42.6482298,110.125497 C41.2310153,110.125497 40.0865702,108.987127 40.0865702,107.581078 C40.0865702,106.17797 41.2310153,105.0396 42.6482298,105.0396 Z M75.0158666,89.0824131 C76.433081,89.0824131 77.5775262,90.2207834 77.5775262,91.623891 C77.5775262,93.0269987 76.433081,94.1683105 75.0158666,94.1683105 C73.5986521,94.1683105 72.4542069,93.0269987 72.4542069,91.623891 C72.4542069,90.2207834 73.5986521,89.0824131 75.0158666,89.0824131 Z M107.18367,89.0824131 C108.600885,89.0824131 109.74533,90.2207834 109.74533,91.623891 C109.74533,93.0269987 108.600885,94.1683105 107.18367,94.1683105 C105.769421,94.1683105 104.622011,93.0269987 104.622011,91.623891 C104.622011,90.2207834 105.769421,89.0824131 107.18367,89.0824131 Z M123.270537,89.0824131 C124.684786,89.0824131 125.832196,90.2207834 125.832196,91.623891 C125.832196,93.0269987 124.684786,94.1683105 123.270537,94.1683105 C121.853322,94.1683105 120.708877,93.0269987 120.708877,91.623891 C120.708877,90.2207834 121.853322,89.0824131 123.270537,89.0824131 Z M91.0997683,89.0824131 C92.5169828,89.0824131 93.661428,90.2207834 93.661428,91.623891 C93.661428,93.0269987 92.5169828,94.1683105 91.0997683,94.1683105 C89.6825539,94.1683105 88.5381087,93.0269987 88.5381087,91.623891 C88.5381087,90.2207834 89.6825539,89.0824131 91.0997683,89.0824131 Z M26.5616596,89.0824131 C27.9788741,89.0824131 29.1233193,90.2207834 29.1233193,91.623891 C29.1233193,93.0269987 27.9788741,94.1683105 26.5616596,94.1683105 C25.14741,94.1683105 24,93.0269987 24,91.623891 C24,90.2207834 25.14741,89.0824131 26.5616596,89.0824131 Z M155.43834,89.0824131 C156.855555,89.0824131 158,90.2207834 158,91.623891 C158,93.0269987 156.855555,94.1683105 155.43834,94.1683105 C154.021126,94.1683105 152.876681,93.0269987 152.876681,91.623891 C152.876681,90.2207834 154.021126,89.0824131 155.43834,89.0824131 Z M58.7321316,89.0824131 C60.1493461,89.0824131 61.2937912,90.2207834 61.2937912,91.623891 C61.2937912,93.0269987 60.1493461,94.1683105 58.7321316,94.1683105 C57.3149171,94.1683105 56.170472,93.0269987 56.170472,91.623891 C56.170472,90.2207834 57.3149171,89.0824131 58.7321316,89.0824131 Z M42.6482298,89.0824131 C44.0624794,89.0824131 45.2098894,90.2207834 45.2098894,91.623891 C45.2098894,93.0269987 44.0624794,94.1683105 42.6482298,94.1683105 C41.2310153,94.1683105 40.0865702,93.0269987 40.0865702,91.623891 C40.0865702,90.2207834 41.2310153,89.0824131 42.6482298,89.0824131 Z M139.354439,89.0824131 C140.771653,89.0824131 141.916098,90.2207834 141.916098,91.623891 C141.916098,93.0269987 140.771653,94.1683105 139.354439,94.1683105 C137.937224,94.1683105 136.792779,93.0269987 136.792779,91.623891 C136.792779,90.2207834 137.937224,89.0824131 139.354439,89.0824131 Z M155.43834,73.1225787 C156.855555,73.1225787 158,74.2609491 158,75.6640567 C158,77.0701058 156.855555,78.2084761 155.43834,78.2084761 C154.021126,78.2084761 152.876681,77.0701058 152.876681,75.6640567 C152.876681,74.2609491 154.021126,73.1225787 155.43834,73.1225787 Z M139.354439,73.1225787 C140.771653,73.1225787 141.916098,74.2609491 141.916098,75.6640567 C141.916098,77.0701058 140.771653,78.2084761 139.354439,78.2084761 C137.937224,78.2084761 136.792779,77.0701058 136.792779,75.6640567 C136.792779,74.2609491 137.937224,73.1225787 139.354439,73.1225787 Z M75.0158666,73.1225787 C76.433081,73.1225787 77.5775262,74.2609491 77.5775262,75.6640567 C77.5775262,77.0701058 76.433081,78.2084761 75.0158666,78.2084761 C73.5986521,78.2084761 72.4542069,77.0701058 72.4542069,75.6640567 C72.4542069,74.2609491 73.5986521,73.1225787 75.0158666,73.1225787 Z M107.18367,73.1225787 C108.600885,73.1225787 109.74533,74.2609491 109.74533,75.6640567 C109.74533,77.0701058 108.600885,78.2084761 107.18367,78.2084761 C105.769421,78.2084761 104.622011,77.0701058 104.622011,75.6640567 C104.622011,74.2609491 105.769421,73.1225787 107.18367,73.1225787 Z M91.0997683,73.1225787 C92.5169828,73.1225787 93.661428,74.2609491 93.661428,75.6640567 C93.661428,77.0701058 92.5169828,78.2084761 91.0997683,78.2084761 C89.6825539,78.2084761 88.5381087,77.0701058 88.5381087,75.6640567 C88.5381087,74.2609491 89.6825539,73.1225787 91.0997683,73.1225787 Z M123.270537,73.1225787 C124.684786,73.1225787 125.832196,74.2609491 125.832196,75.6640567 C125.832196,77.0701058 124.684786,78.2084761 123.270537,78.2084761 C121.853322,78.2084761 120.708877,77.0701058 120.708877,75.6640567 C120.708877,74.2609491 121.853322,73.1225787 123.270537,73.1225787 Z M26.5616596,73.1225787 C27.9788741,73.1225787 29.1233193,74.2609491 29.1233193,75.6640567 C29.1233193,77.0701058 27.9788741,78.2084761 26.5616596,78.2084761 C25.14741,78.2084761 24,77.0701058 24,75.6640567 C24,74.2609491 25.14741,73.1225787 26.5616596,73.1225787 Z M58.7321316,73.1225787 C60.1493461,73.1225787 61.2937912,74.2609491 61.2937912,75.6640567 C61.2937912,77.0701058 60.1493461,78.2084761 58.7321316,78.2084761 C57.3149171,78.2084761 56.170472,77.0701058 56.170472,75.6640567 C56.170472,74.2609491 57.3149171,73.1225787 58.7321316,73.1225787 Z M42.6482298,73.1225787 C44.0624794,73.1225787 45.2098894,74.2609491 45.2098894,75.6640567 C45.2098894,77.0701058 44.0624794,78.2084761 42.6482298,78.2084761 C41.2310153,78.2084761 40.0865702,77.0701058 40.0865702,75.6640567 C40.0865702,74.2609491 41.2310153,73.1225787 42.6482298,73.1225787 Z M139.354439,56.791818 C140.771653,56.791818 141.916098,57.9301883 141.916098,59.333296 C141.916098,60.7393451 140.771653,61.8777154 139.354439,61.8777154 C137.937224,61.8777154 136.792779,60.7393451 136.792779,59.333296 C136.792779,57.9301883 137.937224,56.791818 139.354439,56.791818 Z M26.5616596,56.791818 C27.9788741,56.791818 29.1233193,57.9301883 29.1233193,59.333296 C29.1233193,60.7393451 27.9788741,61.8777154 26.5616596,61.8777154 C25.14741,61.8777154 24,60.7393451 24,59.333296 C24,57.9301883 25.14741,56.791818 26.5616596,56.791818 Z M123.270537,56.791818 C124.684786,56.791818 125.832196,57.9301883 125.832196,59.333296 C125.832196,60.7393451 124.684786,61.8777154 123.270537,61.8777154 C121.853322,61.8777154 120.708877,60.7393451 120.708877,59.333296 C120.708877,57.9301883 121.853322,56.791818 123.270537,56.791818 Z M58.7321316,56.791818 C60.1493461,56.791818 61.2937912,57.9301883 61.2937912,59.333296 C61.2937912,60.7393451 60.1493461,61.8777154 58.7321316,61.8777154 C57.3149171,61.8777154 56.170472,60.7393451 56.170472,59.333296 C56.170472,57.9301883 57.3149171,56.791818 58.7321316,56.791818 Z M155.43834,56.791818 C156.855555,56.791818 158,57.9301883 158,59.333296 C158,60.7393451 156.855555,61.8777154 155.43834,61.8777154 C154.021126,61.8777154 152.876681,60.7393451 152.876681,59.333296 C152.876681,57.9301883 154.021126,56.791818 155.43834,56.791818 Z M91.0997683,56.791818 C92.5169828,56.791818 93.661428,57.9301883 93.661428,59.333296 C93.661428,60.7393451 92.5169828,61.8777154 91.0997683,61.8777154 C89.6825539,61.8777154 88.5381087,60.7393451 88.5381087,59.333296 C88.5381087,57.9301883 89.6825539,56.791818 91.0997683,56.791818 Z M75.0158666,56.791818 C76.433081,56.791818 77.5775262,57.9301883 77.5775262,59.333296 C77.5775262,60.7393451 76.433081,61.8777154 75.0158666,61.8777154 C73.5986521,61.8777154 72.4542069,60.7393451 72.4542069,59.333296 C72.4542069,57.9301883 73.5986521,56.791818 75.0158666,56.791818 Z M107.18367,56.791818 C108.600885,56.791818 109.74533,57.9301883 109.74533,59.333296 C109.74533,60.7393451 108.600885,61.8777154 107.18367,61.8777154 C105.769421,61.8777154 104.622011,60.7393451 104.622011,59.333296 C104.622011,57.9301883 105.769421,56.791818 107.18367,56.791818 Z M42.6482298,56.791818 C44.0624794,56.791818 45.2098894,57.9301883 45.2098894,59.333296 C45.2098894,60.7393451 44.0624794,61.8777154 42.6482298,61.8777154 C41.2310153,61.8777154 40.0865702,60.7393451 40.0865702,59.333296 C40.0865702,57.9301883 41.2310153,56.791818 42.6482298,56.791818 Z M42.6482298,40.8316895 C44.0624794,40.8316895 45.2098894,41.9730013 45.2098894,43.3731674 C45.2098894,44.7792166 44.0624794,45.9175869 42.6482298,45.9175869 C41.2310153,45.9175869 40.0865702,44.7792166 40.0865702,43.3731674 C40.0865702,41.9730013 41.2310153,40.8316895 42.6482298,40.8316895 Z M155.43834,40.8316895 C156.855555,40.8316895 158,41.9730013 158,43.3731674 C158,44.7792166 156.855555,45.9175869 155.43834,45.9175869 C154.021126,45.9175869 152.876681,44.7792166 152.876681,43.3731674 C152.876681,41.9730013 154.021126,40.8316895 155.43834,40.8316895 Z M107.18367,40.8316895 C108.600885,40.8316895 109.74533,41.9730013 109.74533,43.3731674 C109.74533,44.7792166 108.600885,45.9175869 107.18367,45.9175869 C105.769421,45.9175869 104.622011,44.7792166 104.622011,43.3731674 C104.622011,41.9730013 105.769421,40.8316895 107.18367,40.8316895 Z M139.354439,40.8316895 C140.771653,40.8316895 141.916098,41.9730013 141.916098,43.3731674 C141.916098,44.7792166 140.771653,45.9175869 139.354439,45.9175869 C137.937224,45.9175869 136.792779,44.7792166 136.792779,43.3731674 C136.792779,41.9730013 137.937224,40.8316895 139.354439,40.8316895 Z M123.270537,40.8316895 C124.684786,40.8316895 125.832196,41.9730013 125.832196,43.3731674 C125.832196,44.7792166 124.684786,45.9175869 123.270537,45.9175869 C121.853322,45.9175869 120.708877,44.7792166 120.708877,43.3731674 C120.708877,41.9730013 121.853322,40.8316895 123.270537,40.8316895 Z M75.0158666,40.8316895 C76.433081,40.8316895 77.5775262,41.9730013 77.5775262,43.3731674 C77.5775262,44.7792166 76.433081,45.9175869 75.0158666,45.9175869 C73.5986521,45.9175869 72.4542069,44.7792166 72.4542069,43.3731674 C72.4542069,41.9730013 73.5986521,40.8316895 75.0158666,40.8316895 Z M26.5616596,40.8316895 C27.9788741,40.8316895 29.1233193,41.9730013 29.1233193,43.3731674 C29.1233193,44.7792166 27.9788741,45.9175869 26.5616596,45.9175869 C25.14741,45.9175869 24,44.7792166 24,43.3731674 C24,41.9730013 25.14741,40.8316895 26.5616596,40.8316895 Z M91.0997683,40.8316895 C92.5169828,40.8316895 93.661428,41.9730013 93.661428,43.3731674 C93.661428,44.7792166 92.5169828,45.9175869 91.0997683,45.9175869 C89.6825539,45.9175869 88.5381087,44.7792166 88.5381087,43.3731674 C88.5381087,41.9730013 89.6825539,40.8316895 91.0997683,40.8316895 Z M58.7321316,40.8316895 C60.1493461,40.8316895 61.2937912,41.9730013 61.2937912,43.3731674 C61.2937912,44.7792166 60.1493461,45.9175869 58.7321316,45.9175869 C57.3149171,45.9175869 56.170472,44.7792166 56.170472,43.3731674 C56.170472,41.9730013 57.3149171,40.8316895 58.7321316,40.8316895 Z M42.6482298,24.8745025 C44.0624794,24.8745025 45.2098894,26.0128728 45.2098894,27.4159804 C45.2098894,28.8220296 44.0624794,29.9603999 42.6482298,29.9603999 C41.2310153,29.9603999 40.0865702,28.8220296 40.0865702,27.4159804 C40.0865702,26.0128728 41.2310153,24.8745025 42.6482298,24.8745025 Z M155.43834,24.8745025 C156.855555,24.8745025 158,26.0128728 158,27.4159804 C158,28.8220296 156.855555,29.9603999 155.43834,29.9603999 C154.021126,29.9603999 152.876681,28.8220296 152.876681,27.4159804 C152.876681,26.0128728 154.021126,24.8745025 155.43834,24.8745025 Z M58.7321316,24.8745025 C60.1493461,24.8745025 61.2937912,26.0128728 61.2937912,27.4159804 C61.2937912,28.8220296 60.1493461,29.9603999 58.7321316,29.9603999 C57.3149171,29.9603999 56.170472,28.8220296 56.170472,27.4159804 C56.170472,26.0128728 57.3149171,24.8745025 58.7321316,24.8745025 Z M139.354439,24.8745025 C140.771653,24.8745025 141.916098,26.0128728 141.916098,27.4159804 C141.916098,28.8220296 140.771653,29.9603999 139.354439,29.9603999 C137.937224,29.9603999 136.792779,28.8220296 136.792779,27.4159804 C136.792779,26.0128728 137.937224,24.8745025 139.354439,24.8745025 Z M91.0997683,24.8745025 C92.5169828,24.8745025 93.661428,26.0128728 93.661428,27.4159804 C93.661428,28.8220296 92.5169828,29.9603999 91.0997683,29.9603999 C89.6825539,29.9603999 88.5381087,28.8220296 88.5381087,27.4159804 C88.5381087,26.0128728 89.6825539,24.8745025 91.0997683,24.8745025 Z M107.18367,24.8745025 C108.600885,24.8745025 109.74533,26.0128728 109.74533,27.4159804 C109.74533,28.8220296 108.600885,29.9603999 107.18367,29.9603999 C105.769421,29.9603999 104.622011,28.8220296 104.622011,27.4159804 C104.622011,26.0128728 105.769421,24.8745025 107.18367,24.8745025 Z M123.270537,24.8745025 C124.684786,24.8745025 125.832196,26.0128728 125.832196,27.4159804 C125.832196,28.8220296 124.684786,29.9603999 123.270537,29.9603999 C121.853322,29.9603999 120.708877,28.8220296 120.708877,27.4159804 C120.708877,26.0128728 121.853322,24.8745025 123.270537,24.8745025 Z M26.5616596,24.8745025 C27.9788741,24.8745025 29.1233193,26.0128728 29.1233193,27.4159804 C29.1233193,28.8220296 27.9788741,29.9603999 26.5616596,29.9603999 C25.14741,29.9603999 24,28.8220296 24,27.4159804 C24,26.0128728 25.14741,24.8745025 26.5616596,24.8745025 Z M75.0158666,24.8745025 C76.433081,24.8745025 77.5775262,26.0128728 77.5775262,27.4159804 C77.5775262,28.8220296 76.433081,29.9603999 75.0158666,29.9603999 C73.5986521,29.9603999 72.4542069,28.8220296 72.4542069,27.4159804 C72.4542069,26.0128728 73.5986521,24.8745025 75.0158666,24.8745025 Z M26.5616596,8.91731551 C27.9788741,8.91731551 29.1233193,10.0556858 29.1233193,11.4587935 C29.1233193,12.8619011 27.9788741,14.0032129 26.5616596,14.0032129 C25.14741,14.0032129 24,12.8619011 24,11.4587935 C24,10.0556858 25.14741,8.91731551 26.5616596,8.91731551 Z M123.270537,8.91731551 C124.684786,8.91731551 125.832196,10.0556858 125.832196,11.4587935 C125.832196,12.8619011 124.684786,14.0032129 123.270537,14.0032129 C121.853322,14.0032129 120.708877,12.8619011 120.708877,11.4587935 C120.708877,10.0556858 121.853322,8.91731551 123.270537,8.91731551 Z M75.0158666,8.91731551 C76.433081,8.91731551 77.5775262,10.0556858 77.5775262,11.4587935 C77.5775262,12.8619011 76.433081,14.0032129 75.0158666,14.0032129 C73.5986521,14.0032129 72.4542069,12.8619011 72.4542069,11.4587935 C72.4542069,10.0556858 73.5986521,8.91731551 75.0158666,8.91731551 Z M58.7321316,8.91731551 C60.1493461,8.91731551 61.2937912,10.0556858 61.2937912,11.4587935 C61.2937912,12.8619011 60.1493461,14.0032129 58.7321316,14.0032129 C57.3149171,14.0032129 56.170472,12.8619011 56.170472,11.4587935 C56.170472,10.0556858 57.3149171,8.91731551 58.7321316,8.91731551 Z M107.18367,8.91731551 C108.600885,8.91731551 109.74533,10.0556858 109.74533,11.4587935 C109.74533,12.8619011 108.600885,14.0032129 107.18367,14.0032129 C105.769421,14.0032129 104.622011,12.8619011 104.622011,11.4587935 C104.622011,10.0556858 105.769421,8.91731551 107.18367,8.91731551 Z M42.6482298,8.91731551 C44.0624794,8.91731551 45.2098894,10.0556858 45.2098894,11.4587935 C45.2098894,12.8619011 44.0624794,14.0032129 42.6482298,14.0032129 C41.2310153,14.0032129 40.0865702,12.8619011 40.0865702,11.4587935 C40.0865702,10.0556858 41.2310153,8.91731551 42.6482298,8.91731551 Z M91.0997683,8.91731551 C92.5169828,8.91731551 93.661428,10.0556858 93.661428,11.4587935 C93.661428,12.8619011 92.5169828,14.0032129 91.0997683,14.0032129 C89.6825539,14.0032129 88.5381087,12.8619011 88.5381087,11.4587935 C88.5381087,10.0556858 89.6825539,8.91731551 91.0997683,8.91731551 Z M139.354439,8.91731551 C140.771653,8.91731551 141.916098,10.0556858 141.916098,11.4587935 C141.916098,12.8619011 140.771653,14.0032129 139.354439,14.0032129 C137.937224,14.0032129 136.792779,12.8619011 136.792779,11.4587935 C136.792779,10.0556858 137.937224,8.91731551 139.354439,8.91731551 Z M155.43834,8.91731551 C156.855555,8.91731551 158,10.0556858 158,11.4587935 C158,12.8619011 156.855555,14.0032129 155.43834,14.0032129 C154.021126,14.0032129 152.876681,12.8619011 152.876681,11.4587935 C152.876681,10.0556858 154.021126,8.91731551 155.43834,8.91731551 Z M123.270537,-7.04281301 C124.684786,-7.04281301 125.832196,-5.90444268 125.832196,-4.50133506 C125.832196,-3.09528592 124.684786,-1.95691559 123.270537,-1.95691559 C121.853322,-1.95691559 120.708877,-3.09528592 120.708877,-4.50133506 C120.708877,-5.90444268 121.853322,-7.04281301 123.270537,-7.04281301 Z M155.43834,-7.04281301 C156.855555,-7.04281301 158,-5.90444268 158,-4.50133506 C158,-3.09528592 156.855555,-1.95691559 155.43834,-1.95691559 C154.021126,-1.95691559 152.876681,-3.09528592 152.876681,-4.50133506 C152.876681,-5.90444268 154.021126,-7.04281301 155.43834,-7.04281301 Z M42.6482298,-7.04281301 C44.0624794,-7.04281301 45.2098894,-5.90444268 45.2098894,-4.50133506 C45.2098894,-3.09528592 44.0624794,-1.95691559 42.6482298,-1.95691559 C41.2310153,-1.95691559 40.0865702,-3.09528592 40.0865702,-4.50133506 C40.0865702,-5.90444268 41.2310153,-7.04281301 42.6482298,-7.04281301 Z M139.354439,-7.04281301 C140.771653,-7.04281301 141.916098,-5.90444268 141.916098,-4.50133506 C141.916098,-3.09528592 140.771653,-1.95691559 139.354439,-1.95691559 C137.937224,-1.95691559 136.792779,-3.09528592 136.792779,-4.50133506 C136.792779,-5.90444268 137.937224,-7.04281301 139.354439,-7.04281301 Z M75.0158666,-7.04281301 C76.433081,-7.04281301 77.5775262,-5.90444268 77.5775262,-4.50133506 C77.5775262,-3.09528592 76.433081,-1.95691559 75.0158666,-1.95691559 C73.5986521,-1.95691559 72.4542069,-3.09528592 72.4542069,-4.50133506 C72.4542069,-5.90444268 73.5986521,-7.04281301 75.0158666,-7.04281301 Z M107.18367,-7.04281301 C108.600885,-7.04281301 109.74533,-5.90444268 109.74533,-4.50133506 C109.74533,-3.09528592 108.600885,-1.95691559 107.18367,-1.95691559 C105.769421,-1.95691559 104.622011,-3.09528592 104.622011,-4.50133506 C104.622011,-5.90444268 105.769421,-7.04281301 107.18367,-7.04281301 Z M91.0997683,-7.04281301 C92.5169828,-7.04281301 93.661428,-5.90444268 93.661428,-4.50133506 C93.661428,-3.09528592 92.5169828,-1.95691559 91.0997683,-1.95691559 C89.6825539,-1.95691559 88.5381087,-3.09528592 88.5381087,-4.50133506 C88.5381087,-5.90444268 89.6825539,-7.04281301 91.0997683,-7.04281301 Z M26.5616596,-7.04281301 C27.9788741,-7.04281301 29.1233193,-5.90444268 29.1233193,-4.50133506 C29.1233193,-3.09528592 27.9788741,-1.95691559 26.5616596,-1.95691559 C25.14741,-1.95691559 24,-3.09528592 24,-4.50133506 C24,-5.90444268 25.14741,-7.04281301 26.5616596,-7.04281301 Z M58.7321316,-7.04281301 C60.1493461,-7.04281301 61.2937912,-5.90444268 61.2937912,-4.50133506 C61.2937912,-3.09528592 60.1493461,-1.95691559 58.7321316,-1.95691559 C57.3149171,-1.95691559 56.170472,-3.09528592 56.170472,-4.50133506 C56.170472,-5.90444268 57.3149171,-7.04281301 58.7321316,-7.04281301 Z M123.270537,-23 C124.684786,-23 125.832196,-21.8616297 125.832196,-20.4585221 C125.832196,-19.0524729 124.684786,-17.9141026 123.270537,-17.9141026 C121.853322,-17.9141026 120.708877,-19.0524729 120.708877,-20.4585221 C120.708877,-21.8616297 121.853322,-23 123.270537,-23 Z M155.43834,-23 C156.855555,-23 158,-21.8616297 158,-20.4585221 C158,-19.0524729 156.855555,-17.9141026 155.43834,-17.9141026 C154.021126,-17.9141026 152.876681,-19.0524729 152.876681,-20.4585221 C152.876681,-21.8616297 154.021126,-23 155.43834,-23 Z M139.354439,-23 C140.771653,-23 141.916098,-21.8616297 141.916098,-20.4585221 C141.916098,-19.0524729 140.771653,-17.9141026 139.354439,-17.9141026 C137.937224,-17.9141026 136.792779,-19.0524729 136.792779,-20.4585221 C136.792779,-21.8616297 137.937224,-23 139.354439,-23 Z M75.0158666,-23 C76.433081,-23 77.5775262,-21.8616297 77.5775262,-20.4585221 C77.5775262,-19.0524729 76.433081,-17.9141026 75.0158666,-17.9141026 C73.5986521,-17.9141026 72.4542069,-19.0524729 72.4542069,-20.4585221 C72.4542069,-21.8616297 73.5986521,-23 75.0158666,-23 Z M107.18367,-23 C108.600885,-23 109.74533,-21.8616297 109.74533,-20.4585221 C109.74533,-19.0524729 108.600885,-17.9141026 107.18367,-17.9141026 C105.769421,-17.9141026 104.622011,-19.0524729 104.622011,-20.4585221 C104.622011,-21.8616297 105.769421,-23 107.18367,-23 Z M91.0997683,-23 C92.5169828,-23 93.661428,-21.8616297 93.661428,-20.4585221 C93.661428,-19.0524729 92.5169828,-17.9141026 91.0997683,-17.9141026 C89.6825539,-17.9141026 88.5381087,-19.0524729 88.5381087,-20.4585221 C88.5381087,-21.8616297 89.6825539,-23 91.0997683,-23 Z M26.5616596,-23 C27.9788741,-23 29.1233193,-21.8616297 29.1233193,-20.4585221 C29.1233193,-19.0524729 27.9788741,-17.9141026 26.5616596,-17.9141026 C25.14741,-17.9141026 24,-19.0524729 24,-20.4585221 C24,-21.8616297 25.14741,-23 26.5616596,-23 Z M58.7321316,-23 C60.1493461,-23 61.2937912,-21.8616297 61.2937912,-20.4585221 C61.2937912,-19.0524729 60.1493461,-17.9141026 58.7321316,-17.9141026 C57.3149171,-17.9141026 56.170472,-19.0524729 56.170472,-20.4585221 C56.170472,-21.8616297 57.3149171,-23 58.7321316,-23 Z M42.6482298,-23 C44.0624794,-23 45.2098894,-21.8616297 45.2098894,-20.4585221 C45.2098894,-19.0524729 44.0624794,-17.9141026 42.6482298,-17.9141026 C41.2310153,-17.9141026 40.0865702,-19.0524729 40.0865702,-20.4585221 C40.0865702,-21.8616297 41.2310153,-23 42.6482298,-23 Z" id="dots" transform="translate(91.000000, 67.500000) rotate(90.000000) translate(-91.000000, -67.500000) "></path>
                    </g>
                </g>
            </g>
        </g>
    </g>
</svg>