<svg id="Layer_1" data-name="Layer 1" xmlns="http://www.w3.org/2000/svg" viewBox="0 0 229.06 53.41"><defs><style>.cls-1{fill:#006b4f;}.cls-2{fill:#ee2e43;}</style></defs><title>logo</title><g id="logo"><path class="cls-1" d="M91.92,88.91v19.3c0,1.42.07,3,.13,4.13H89.48l-.13-2.77h-.1a5.78,5.78,0,0,1-5.38,3.13c-3.87,0-6.87-3.26-6.87-8.12C77,99.27,80.3,96,84.16,96A5.35,5.35,0,0,1,89,98.44h.07V88.91Zm-2.87,14a5,5,0,0,0-.13-1.22,4.29,4.29,0,0,0-4.2-3.34c-3,0-4.78,2.64-4.78,6.14,0,3.24,1.62,5.91,4.72,5.91a4.4,4.4,0,0,0,4.26-3.47,5,5,0,0,0,.13-1.25Z" transform="translate(-11.29 -77.3)"/><path class="cls-1" d="M96.41,96.5l4.15,10.36c.43,1.12.86,2.41,1.16,3.4h.07c.33-1,.72-2.21,1.22-3.5l3.86-10.26h1.68l-4.75,11.81c-1.92,4.92-3.27,7.86-5.35,9.67a8.85,8.85,0,0,1-2.77,1.65l-.5-1.32A8.05,8.05,0,0,0,98,116.56a12.72,12.72,0,0,0,2.64-4,2.05,2.05,0,0,0,.19-.69,2.28,2.28,0,0,0-.19-.7L94.72,96.5Z" transform="translate(-11.29 -77.3)"/><path class="cls-1" d="M111.55,100.29c0-1.45,0-2.54-.13-3.79h1.48l.1,2.87h.07a6,6,0,0,1,5.45-3.24c1.51,0,5.54.76,5.54,6.7v9.51h-1.58V103c0-2.88-1.13-5.48-4.39-5.48a5.09,5.09,0,0,0-4.76,3.63,6,6,0,0,0-.19,1.42v9.8h-1.59Z" transform="translate(-11.29 -77.3)"/><path class="cls-1" d="M139.11,108.58a23.52,23.52,0,0,0,.23,3.76h-1.45l-.23-2.28h-.07a6.05,6.05,0,0,1-5.08,2.64,4.31,4.31,0,0,1-4.66-4.35c0-3.67,3.21-5.88,9.67-5.81v-.43c0-1.55-.29-4.69-4.05-4.66a7,7,0,0,0-4,1.19L129,97.49a8.72,8.72,0,0,1,4.65-1.36c4.59,0,5.48,3.44,5.48,6.24Zm-1.59-4.72c-3.46-.1-8,.43-8,4.22a3,3,0,0,0,3.17,3.3,4.73,4.73,0,0,0,4.69-3.17,2.66,2.66,0,0,0,.16-.95Z" transform="translate(-11.29 -77.3)"/><path class="cls-1" d="M144.22,100.29c0-1.45,0-2.54-.13-3.79h1.48l.1,2.8h.07a5.57,5.57,0,0,1,5.15-3.17,4.83,4.83,0,0,1,4.55,3.47h.07a5.9,5.9,0,0,1,1.62-2.15,5.36,5.36,0,0,1,3.76-1.32c1.55,0,5.18.86,5.18,6.87v9.34h-1.58v-9.18c0-3.56-1.39-5.67-4.13-5.67a4.6,4.6,0,0,0-4.16,3.13,5.71,5.71,0,0,0-.26,1.55v10.17h-1.59v-9.9c0-2.87-1.35-5-3.92-5a4.89,4.89,0,0,0-4.39,3.56,5.16,5.16,0,0,0-.23,1.52v9.77h-1.59Z" transform="translate(-11.29 -77.3)"/><rect class="cls-1" x="159.96" y="19.2" width="1.58" height="15.84"/><path class="cls-1" d="M172,90.5A1.48,1.48,0,1,0,173.5,92,1.48,1.48,0,0,0,172,90.5Z" transform="translate(-11.29 -77.3)"/><path class="cls-1" d="M189.07,111.65a10.78,10.78,0,0,1-4.65,1c-4.56,0-7.59-3.33-7.59-8.09,0-5,3.43-8.45,8.15-8.45a8.22,8.22,0,0,1,4.16,1l-.57,1.29a7.36,7.36,0,0,0-3.72-.92c-4.26,0-6.44,3.26-6.44,7,0,4.16,2.61,6.87,6.27,6.87a8.74,8.74,0,0,0,4-.93Z" transform="translate(-11.29 -77.3)"/><path class="cls-1" d="M207.26,110c0,3.69-.76,5.9-2.27,7.32a8.8,8.8,0,0,1-5.85,1.92,10.3,10.3,0,0,1-5.31-1.32l.73-2.25a8.59,8.59,0,0,0,4.68,1.29c3,0,5.15-1.55,5.15-5.61V109.6h-.06a5.68,5.68,0,0,1-5.09,2.67c-4,0-6.8-3.36-6.8-7.79,0-5.41,3.54-8.44,7.23-8.44a5.35,5.35,0,0,1,5,2.73h.06l.1-2.4h2.57c-.09,1.12-.13,2.44-.13,4.35Zm-2.9-7.33a3.64,3.64,0,0,0-.17-1.29,4.14,4.14,0,0,0-4.06-3.1c-2.77,0-4.75,2.34-4.75,6,0,3.14,1.62,5.74,4.72,5.74a4.19,4.19,0,0,0,4-3,5.15,5.15,0,0,0,.23-1.55Z" transform="translate(-11.29 -77.3)"/><path class="cls-1" d="M223.52,108.48c0,1.38,0,2.64.13,3.86h-1.48l-.1-2.84H222a6.07,6.07,0,0,1-5.41,3.2c-2,0-5.41-1-5.41-7V96.5h1.58v8.91c0,3.43,1.06,5.91,4.19,5.91a5.23,5.23,0,0,0,4.69-3.2,5.62,5.62,0,0,0,.3-1.75V96.5h1.58Z" transform="translate(-11.29 -77.3)"/><path class="cls-1" d="M228.21,96.5l4.15,10.36c.43,1.12.86,2.41,1.16,3.4h.07c.33-1,.72-2.21,1.22-3.5l3.86-10.26h1.68l-4.75,11.81c-1.92,4.92-3.27,7.86-5.35,9.67a8.85,8.85,0,0,1-2.77,1.65l-.5-1.32a8.05,8.05,0,0,0,2.78-1.75,12.72,12.72,0,0,0,2.64-4,2.14,2.14,0,0,0,.2-.69,2.4,2.4,0,0,0-.2-.7L226.52,96.5Z" transform="translate(-11.29 -77.3)"/><path class="cls-1" d="M42.69,77.3v32.9c0,3,.14,6.39.28,8.69H37.55l-.28-5.84h-.21c-1.8,3.75-5.83,6.6-11.32,6.6-8.13,0-14.45-6.88-14.45-17.09-.07-11.19,7-18,15.07-18,5.21,0,8.62,2.44,10.15,5.08h.14V77.3ZM26,92a11.07,11.07,0,0,0-2.58-.25A9,9,0,0,0,14.74,99c-1.28,6.19,3.4,11,10.61,12.49,6.67,1.38,12.87-.82,14.2-7.21A9.28,9.28,0,0,0,34.22,94a10.56,10.56,0,0,0-2.53-.8Z" transform="translate(-11.29 -77.3)"/><path class="cls-1" d="M70.49,112.4c0,7.33-1.5,11.71-4.51,14.52s-7.59,3.79-11.57,3.79c-3.8,0-8-.91-10.53-2.61l1.44-4.45a17.15,17.15,0,0,0,9.28,2.55c5.89,0,10.2-3.07,10.2-11.11v-3.47h-.13c-1.7,2.94-5.16,5.3-10.07,5.3-7.84,0-13.47-6.67-13.47-15.44,0-10.72,7-16.74,14.32-16.74,5.5,0,8.44,2.82,9.88,5.43h.13l.19-4.77h5.1c-.19,2.22-.26,4.84-.26,8.63ZM52.65,92.05a7.41,7.41,0,0,0-2.54.39,8.21,8.21,0,0,0-6,8.19c.14,5.49,4.88,9.3,12.2,9.12,6.21-.16,11.3-3.49,11.14-9.64a8.28,8.28,0,0,0-6.08-7.82,9.61,9.61,0,0,0-3.08-.38Z" transform="translate(-11.29 -77.3)"/><ellipse class="cls-2" cx="20.24" cy="24.29" rx="6.4" ry="5.17"/><ellipse class="cls-2" cx="47.54" cy="24.51" rx="6.24" ry="4.83"/></g></svg>