<?xml version="1.0" encoding="UTF-8"?>
<!DOCTYPE svg PUBLIC "-//W3C//DTD SVG 1.1//EN" "http://www.w3.org/Graphics/SVG/1.1/DTD/svg11.dtd">
<svg version="1.1" xmlns="http://www.w3.org/2000/svg" xmlns:xlink="http://www.w3.org/1999/xlink" x="0" y="0" width="800" height="800" viewBox="0, 0, 800, 800">
	<style>
		.color1 {
			fill: #ff7175;
			opacity: .2
		}

		.color2 {
			fill: #C3D7DE;
			opacity: .3
		}

		.color3 {
			fill: #ff7175;
			opacity: .1
		}

		.color4 {
			fill: #C3D7DE;
			opacity: .3
		}
	</style>
	<g>
		<path d="M206.188,87.156 L171.092,93.065 L165.182,57.97 L200.278,52.06 L206.188,87.156" class="color1" />
		<path d="M83.408,148.971 L70.528,186.267 L33.232,173.387 L46.112,136.091 L83.408,148.971" class="color2" />
		<path d="M68.104,37.085 L85.741,54.482 L68.344,72.12 L50.707,54.723 L68.104,37.085" class="color3" />
		<path d="M351.652,310.35 L376.423,310.003 L376.769,334.775 L351.998,335.121 L351.652,310.35" class="color4" />
		<path d="M364.21,199.871 L362.58,229.193 L333.257,227.563 L334.887,198.24 L364.21,199.871" class="color3" />
		<path d="M151.146,252.151 L133.23,269.084 L116.299,251.168 L134.215,234.236 L151.146,252.151" class="color3" />
		<path d="M232.408,161.744 L244.779,187.969 L218.555,200.339 L206.183,174.115 L232.408,161.744" class="color2" />
		<path d="M67.946,331.642 L80.317,357.867 L54.093,370.237 L41.721,344.012 L67.946,331.642" class="color4" />
		<path d="M328.339,30.761 L314.584,59.479 L285.868,45.723 L299.623,17.006 L328.339,30.761" class="color2" />
		<path d="M261.421,278.448 L281.636,311.43 L248.653,331.642 L228.44,298.661 L261.421,278.448" class="color2" />
		<path d="M353.881,103.43 L376.311,111.826 L367.915,134.254 L345.485,125.858 L353.881,103.43" class="color4" />
		<path d="M151.43,348.148 L175.063,344.276 L178.935,367.909 L155.301,371.781 L151.43,348.148" class="color3" />
		<path d="M598.739,93.102 L563.643,99.011 L557.733,63.916 L592.829,58.005 L598.739,93.102" class="color2" />
		<path d="M475.959,154.917 L463.08,192.213 L425.783,179.333 L438.663,142.037 L475.959,154.917" class="color1" />
		<path d="M460.654,43.031 L478.293,60.428 L460.896,78.065 L443.258,60.668 L460.654,43.031" class="color3" />
		<path d="M744.203,316.295 L768.975,315.949 L769.32,340.721 L744.549,341.067 L744.203,316.295" class="color2" />
		<path d="M756.762,205.816 L755.131,235.139 L725.809,233.509 L727.438,204.186 L756.762,205.816" class="color4" />
		<path d="M543.697,258.097 L525.781,275.03 L508.85,257.114 L526.766,240.182 L543.697,258.097" class="color4" />
		<path d="M624.959,167.69 L637.33,193.915 L611.105,206.285 L598.734,180.061 L624.959,167.69" class="color3" />
		<path d="M460.497,337.587 L472.869,363.813 L446.645,376.183 L434.272,349.958 L460.497,337.587" class="color1" />
		<path d="M720.891,36.707 L707.136,65.425 L678.42,51.669 L692.174,22.952 L720.891,36.707" class="color3" />
		<path d="M653.973,284.394 L674.188,317.375 L641.205,337.587 L620.992,304.606 L653.973,284.394" class="color2" />
		<path d="M746.433,109.376 L768.861,117.771 L760.466,140.2 L738.037,131.804 L746.433,109.376" class="color2" />
		<path d="M543.98,354.094 L567.615,350.222 L571.486,373.855 L547.852,377.727 L543.98,354.094" class="color3" />
		<path d="M214.677,478.703 L179.581,484.613 L173.671,449.518 L208.767,443.607 L214.677,478.703" class="color4" />
		<path d="M91.897,540.518 L79.018,577.814 L41.722,564.934 L54.601,527.639 L91.897,540.518" class="color2" />
		<path d="M76.593,428.633 L94.23,446.029 L76.834,463.667 L59.196,446.27 L76.593,428.633" class="color3" />
		<path d="M360.141,701.896 L384.912,701.551 L385.258,726.322 L360.487,726.668 L360.141,701.896" class="color3" />
		<path d="M372.7,591.418 L371.069,620.74 L341.747,619.111 L343.376,589.787 L372.7,591.418" class="color4" />
		<path d="M159.636,643.699 L141.72,660.631 L124.788,642.715 L142.704,625.783 L159.636,643.699" class="color3" />
		<path d="M240.897,553.291 L253.269,579.517 L227.044,591.887 L214.672,565.662 L240.897,553.291" class="color2" />
		<path d="M76.435,723.189 L88.807,749.414 L62.582,761.784 L50.21,735.56 L76.435,723.189" class="color3" />
		<path d="M336.828,422.309 L323.074,451.026 L294.357,437.271 L308.112,408.554 L336.828,422.309" class="color3" />
		<path d="M269.911,669.995 L290.125,702.977 L257.143,723.189 L236.93,690.208 L269.911,669.995" class="color2" />
		<path d="M362.371,494.978 L384.8,503.373 L376.404,525.801 L353.975,517.406 L362.371,494.978" class="color2" />
		<path d="M159.919,739.695 L183.553,735.824 L187.424,759.457 L163.79,763.328 L159.919,739.695" class="color4" />
		<path d="M607.229,484.648 L572.132,490.559 L566.223,455.463 L601.318,449.553 L607.229,484.648" class="color2" />
		<path d="M484.448,546.464 L471.569,583.76 L434.272,570.88 L447.152,533.584 L484.448,546.464" class="color3" />
		<path d="M469.144,434.578 L486.782,451.975 L469.385,469.613 L451.747,452.216 L469.144,434.578" class="color3" />
		<path d="M752.692,707.843 L777.464,707.496 L777.81,732.268 L753.038,732.614 L752.692,707.843" class="color4" />
		<path d="M765.251,597.363 L763.62,626.687 L734.298,625.057 L735.928,595.733 L765.251,597.363" class="color2" />
		<path d="M552.187,649.645 L534.271,666.577 L517.339,648.661 L535.255,631.729 L552.187,649.645" class="color2" />
		<path d="M633.448,559.237 L645.819,585.463 L619.595,597.832 L607.224,571.607 L633.448,559.237" class="color3" />
		<path d="M468.986,729.135 L481.358,755.359 L455.134,767.73 L442.762,741.506 L468.986,729.135" class="color4" />
		<path d="M729.38,428.254 L715.625,456.973 L686.909,443.217 L700.663,414.5 L729.38,428.254" class="color4" />
		<path d="M662.462,675.941 L682.677,708.923 L649.694,729.135 L629.481,696.154 L662.462,675.941" class="color4" />
		<path d="M754.922,500.924 L777.351,509.318 L768.955,531.747 L746.526,523.352 L754.922,500.924" class="color3" />
		<path d="M552.47,745.641 L576.104,741.77 L579.976,765.402 L556.341,769.274 L552.47,745.641" class="color3" />
	</g>
</svg>