<svg xmlns="http://www.w3.org/2000/svg" width="44" height="27" viewBox="0 0 44 27">
    <g fill="none" fill-rule="evenodd">
        <path fill="#4F4F4F" fill-rule="nonzero" d="M12.407 9.552c0 .541.058.98.16 1.302.117.322.264.673.468 1.053a.636.636 0 0 1 .103.336c0 .147-.088.293-.278.44l-.921.614a.701.701 0 0 1-.38.131c-.147 0-.293-.073-.44-.205a4.525 4.525 0 0 1-.526-.687 11.324 11.324 0 0 1-.453-.863C9 13.019 7.566 13.69 5.84 13.69c-1.228 0-2.208-.35-2.924-1.053C2.199 11.936 1.833 11 1.833 9.83c0-1.244.44-2.253 1.331-3.014.892-.76 2.077-1.14 3.583-1.14.497 0 1.01.043 1.55.117.541.073 1.097.19 1.682.321V5.047c0-1.112-.234-1.887-.687-2.34-.468-.454-1.258-.674-2.384-.674-.512 0-1.038.059-1.58.19a11.65 11.65 0 0 0-1.579.498c-.234.102-.41.16-.512.19a.897.897 0 0 1-.234.044c-.204 0-.307-.146-.307-.454v-.716c0-.234.03-.41.103-.512.073-.103.204-.205.409-.308C3.72.702 4.334.483 5.051.307A8.864 8.864 0 0 1 7.332.03c1.74 0 3.013.395 3.832 1.185.804.79 1.213 1.99 1.213 3.598v4.74h.03zm-5.938 2.223c.483 0 .98-.088 1.506-.263a3.259 3.259 0 0 0 1.39-.936c.234-.278.41-.585.497-.936.088-.351.146-.776.146-1.273v-.614a12.21 12.21 0 0 0-1.345-.249 11.017 11.017 0 0 0-1.375-.088c-.98 0-1.696.19-2.179.585-.482.395-.716.951-.716 1.683 0 .687.175 1.199.54 1.55.352.366.863.541 1.536.541zm11.743 1.58c-.263 0-.438-.044-.555-.146-.117-.088-.22-.293-.307-.57L13.913 1.33c-.088-.292-.132-.483-.132-.585 0-.234.117-.366.351-.366h1.433c.278 0 .468.044.57.147.118.087.205.292.293.57l2.457 9.684 2.281-9.684c.074-.292.161-.483.278-.57.117-.088.322-.147.585-.147h1.17c.278 0 .468.044.585.147.117.087.22.292.278.57l2.31 9.8 2.53-9.8c.088-.292.19-.483.293-.57.117-.088.307-.147.57-.147h1.36c.234 0 .366.117.366.366 0 .073-.015.146-.03.234a2.082 2.082 0 0 1-.102.366l-3.524 11.307c-.088.292-.19.483-.307.57-.117.088-.307.147-.556.147h-1.257c-.278 0-.468-.044-.585-.147-.117-.102-.22-.292-.278-.585l-2.267-9.435-2.252 9.42c-.073.293-.161.483-.278.586-.117.102-.322.146-.585.146h-1.258zm18.792.395c-.76 0-1.52-.088-2.252-.263-.731-.176-1.301-.366-1.682-.585-.234-.132-.394-.278-.453-.41a1.033 1.033 0 0 1-.088-.41v-.746c0-.307.117-.453.337-.453.087 0 .175.015.263.044.088.03.22.088.366.146.497.22 1.038.395 1.608.512a8.78 8.78 0 0 0 1.74.176c.922 0 1.638-.161 2.136-.483.497-.322.76-.79.76-1.39 0-.41-.132-.746-.395-1.024s-.76-.526-1.477-.76l-2.12-.659c-1.068-.336-1.858-.833-2.34-1.492-.483-.643-.731-1.36-.731-2.12 0-.615.131-1.156.394-1.624a3.76 3.76 0 0 1 1.053-1.2 4.641 4.641 0 0 1 1.521-.76A6.372 6.372 0 0 1 37.487 0c.322 0 .658.015.98.059.336.043.643.102.95.16.293.074.57.147.834.234.263.088.468.176.614.264.205.117.351.234.439.365.088.117.131.278.131.483v.688c0 .307-.117.468-.336.468-.117 0-.307-.059-.556-.176-.833-.38-1.77-.57-2.807-.57-.834 0-1.492.131-1.945.41-.454.277-.688.701-.688 1.301 0 .41.146.76.439 1.039.292.278.834.556 1.609.804l2.076.659c1.053.336 1.814.804 2.267 1.404.453.6.673 1.287.673 2.048 0 .629-.132 1.2-.38 1.696a3.934 3.934 0 0 1-1.068 1.288c-.453.365-.995.629-1.623.819a6.952 6.952 0 0 1-2.092.307z"/>
        <path fill="#A4A4A4" d="M.692 17.484c6.205 3.664 13.859 5.883 21.776 5.883 5.341 0 11.21-1.132 16.61-3.455.804-.373 1.492.536.702 1.131-4.815 3.62-11.81 5.54-17.824 5.54-8.43 0-16.025-3.172-21.761-8.444-.454-.417-.044-.983.497-.655zm43.141-.372c.527.67-.146 5.272-2.722 7.476-.395.342-.775.164-.6-.283.586-1.475 1.888-4.796 1.274-5.585-.615-.804-4.069-.387-5.634-.193-.469.06-.542-.358-.118-.67 2.752-1.966 7.274-1.4 7.8-.745z"/>
    </g>
</svg>
