<svg xmlns="http://www.w3.org/2000/svg" width="36" height="28" viewBox="0 0 36 28">
    <path fill="#A4A4A4" fill-rule="nonzero" d="M0 16.769v5.517c0 3.054 7.929 5.528 17.714 5.528v-5.528C7.93 22.286 0 19.817 0 16.769zm17.714-5.529l13.857 3.429c2.412-.943 3.86-2.143 3.86-3.429V5.714c0-3.051-7.931-5.528-17.714-5.528C7.934.186 0 2.654 0 5.714v5.526c0 3.046 7.929 5.529 17.714 5.529V11.24zm13.855 8.971L17.714 16.77v5.517l13.857 3.443c2.409-.935 3.858-2.132 3.858-3.443v-5.517c0 1.3-1.449 2.497-3.86 3.442z"/>
</svg>
