<svg xmlns="http://www.w3.org/2000/svg" width="43" height="31" viewBox="0 0 43 31">
    <g fill="#7D7D7D" fill-rule="nonzero">
        <path d="M42.19 11.792c-.118-.1-1.181-.914-3.464-.914-.59 0-1.2.06-1.79.16-.433-3.038-2.932-4.507-3.03-4.586l-.61-.358-.394.576a8.528 8.528 0 0 0-1.083 2.54c-.413 1.728-.157 3.356.709 4.745-1.043.596-2.736.735-3.09.755H1.496c-.729 0-1.319.595-1.319 1.33a20.246 20.246 0 0 0 1.22 7.245c.964 2.541 2.4 4.427 4.25 5.579 2.086 1.29 5.49 2.024 9.328 2.024 1.732 0 3.463-.158 5.175-.476a21.24 21.24 0 0 0 6.77-2.481 18.563 18.563 0 0 0 4.604-3.812c2.224-2.521 3.542-5.34 4.506-7.841h.394c2.42 0 3.916-.973 4.742-1.807.551-.516.965-1.15 1.26-1.866l.177-.516-.413-.297z"/>
        <path d="M4.093 13.896h3.739a.333.333 0 0 0 .334-.338v-3.374a.333.333 0 0 0-.334-.338H4.093a.333.333 0 0 0-.335.338v3.374c.02.199.158.338.335.338M9.249 13.896h3.738a.333.333 0 0 0 .335-.338v-3.374a.333.333 0 0 0-.335-.338H9.25a.333.333 0 0 0-.335.338v3.374c.02.199.158.338.335.338M14.503 13.896h3.739a.333.333 0 0 0 .334-.338v-3.374a.333.333 0 0 0-.334-.338h-3.74a.333.333 0 0 0-.334.338v3.374c0 .199.138.338.335.338M19.678 13.896h3.739a.333.333 0 0 0 .334-.338v-3.374a.333.333 0 0 0-.334-.338h-3.739a.333.333 0 0 0-.335.338v3.374c0 .199.158.338.335.338M9.249 9.072h3.738a.346.346 0 0 0 .335-.338V5.36a.333.333 0 0 0-.335-.338H9.25a.333.333 0 0 0-.335.338v3.374c.02.18.158.338.335.338M14.503 9.072h3.739a.346.346 0 0 0 .334-.338V5.36a.333.333 0 0 0-.334-.338h-3.74a.333.333 0 0 0-.334.338v3.374c0 .18.138.338.335.338M19.678 9.072h3.739a.346.346 0 0 0 .334-.338V5.36a.346.346 0 0 0-.334-.338h-3.739a.333.333 0 0 0-.335.338v3.374c0 .18.158.338.335.338M19.678 4.228h3.739a.333.333 0 0 0 .334-.337V.516a.346.346 0 0 0-.334-.337h-3.739a.333.333 0 0 0-.335.337v3.375c0 .178.158.337.335.337M24.893 13.896h3.738a.333.333 0 0 0 .335-.338v-3.374a.333.333 0 0 0-.335-.338h-3.738a.333.333 0 0 0-.335.338v3.374c.02.199.158.338.335.338"/>
    </g>
</svg>
