<svg xmlns="http://www.w3.org/2000/svg" width="32" height="36" viewBox="0 0 32 36">
    <path fill="gray" fill-rule="nonzero" d="M16.003 0a3.202 3.202 0 0 1 3.073 4.121l7.395 4.27c.208-.22.451-.415.727-.576a3.212 3.212 0 0 1 4.381 1.176 3.212 3.212 0 0 1-2.03 4.72v8.543c.29.07.574.182.845.338a3.196 3.196 0 0 1 1.176 4.38 3.21 3.21 0 0 1-5.174.532l-7.35 4.243a3.21 3.21 0 0 1-3.043 4.216 3.202 3.202 0 0 1-3.075-4.112l-7.392-4.269a3.208 3.208 0 0 1-5.098-.61 3.212 3.212 0 0 1 2.02-4.718v-8.542a3.21 3.21 0 0 1-2.03-4.72 3.21 3.21 0 0 1 5.104-.605l7.397-4.27A3.202 3.202 0 0 1 16.003 0zm9.676 26.136l-19.352.001c-.01.042-.021.083-.033.124l7.4 4.272a3.195 3.195 0 0 1 2.31-.98c.94 0 1.784.403 2.37 1.046l7.364-4.252a3.234 3.234 0 0 1-.06-.21zM16.003 6.41c-.31 0-.61-.044-.893-.125L5.43 23.05a3.215 3.215 0 0 1 .902 1.561h19.344a3.213 3.213 0 0 1 .902-1.564l-9.68-16.764a3.215 3.215 0 0 1-.895.126zm-2.305-.977l-7.41 4.28a3.2 3.2 0 0 1-2.306 3.99v8.555c.043.01.085.022.127.034l9.68-16.768a3.218 3.218 0 0 1-.091-.091zm4.522.089l9.681 16.768.123-.033v-8.553a3.2 3.2 0 0 1-2.306-3.987l-7.413-4.28a3.218 3.218 0 0 1-.085.085z"/>
</svg>
