<svg xmlns="http://www.w3.org/2000/svg" width="33" height="44" viewBox="0 0 33 44">
    <g fill="none" fill-rule="nonzero">
        <path fill="#6A6A6A" d="M10.49 33.985s-1.678.975 1.193 1.305c3.477.396 5.254.34 9.086-.386 0 0 1.008.632 2.415 1.18-8.59 3.681-19.442-.214-12.695-2.1M9.44 29.18s-1.881 1.392.991 1.69c3.715.383 6.648.414 11.725-.563 0 0 .702.711 1.806 1.1-10.387 3.038-21.956.24-14.523-2.227"/>
        <path fill="#B5B5B5" d="M18.289 21.03c2.117 2.437-.556 4.63-.556 4.63s5.375-2.775 2.906-6.249c-2.305-3.24-4.073-4.85 5.498-10.4 0 0-15.023 3.751-7.848 12.019"/>
        <path fill="#6A6A6A" d="M29.65 37.538s1.242 1.023-1.366 1.814c-4.959 1.502-20.638 1.956-24.994.06-1.566-.681 1.37-1.627 2.294-1.825.963-.209 1.514-.17 1.514-.17-1.741-1.227-11.255 2.409-4.833 3.45 17.516 2.84 31.929-1.28 27.386-3.329M11.296 24.202S3.32 26.096 8.47 26.784c2.175.291 6.511.226 10.55-.113 3.3-.278 6.615-.87 6.615-.87s-1.164.498-2.006 1.073c-8.1 2.13-23.745 1.14-19.241-1.04 3.81-1.84 6.907-1.632 6.907-1.632M25.603 32.2c8.233-4.279 4.427-8.39 1.77-7.836-.652.135-.942.253-.942.253s.242-.38.703-.543c5.257-1.848 9.3 5.45-1.696 8.341 0 0 .127-.114.165-.216"/>
        <path fill="#B5B5B5" d="M20.64.047s4.559 4.561-4.325 11.575c-7.125 5.627-1.625 8.835-.003 12.5-4.159-3.752-7.21-7.055-5.163-10.13 3.005-4.512 11.33-6.7 9.49-13.945"/>
        <path fill="#6A6A6A" d="M12.105 43.793c7.902.505 20.038-.281 20.326-4.02 0 0-.553 1.417-6.532 2.543-6.745 1.27-15.064 1.121-19.999.307 0 0 1.01.836 6.205 1.17"/>
    </g>
</svg>
