<svg xmlns="http://www.w3.org/2000/svg" width="34" height="35" viewBox="0 0 34 35">
    <path fill="#6F6F6F" fill-rule="evenodd" d="M33.98 7.918c.013.047.02.095.02.143v7.513c0 .196-.105.377-.275.475l-6.306 3.63v7.196c0 .196-.104.376-.274.475l-13.163 7.577c-.03.017-.063.028-.096.04-.012.004-.023.011-.036.015-.092.024-.19.024-.281 0-.015-.004-.029-.012-.043-.018-.03-.01-.062-.02-.09-.037L.275 27.35c-.17-.098-.276-.279-.276-.475V4.337c0-.05.007-.097.02-.144.003-.016.013-.03.018-.046.01-.029.02-.058.035-.085.01-.017.026-.032.038-.048.016-.022.03-.045.049-.064.015-.016.036-.027.054-.041.02-.017.037-.034.06-.047L6.855.073c.17-.097.38-.097.549 0l6.58 3.789h.001c.022.013.04.03.06.046.018.014.038.026.054.041.02.02.033.043.05.065.011.016.027.03.036.048.016.028.025.056.036.085.005.016.015.03.02.047.012.046.018.095.018.143v14.077l5.484-3.157V8.06c0-.048.007-.096.019-.142.005-.017.014-.03.019-.047.011-.028.02-.058.036-.085.01-.017.025-.032.037-.048.016-.022.03-.045.049-.064.016-.016.036-.027.053-.04.02-.017.039-.035.06-.048h.001l6.581-3.789c.17-.097.379-.097.548 0l6.58 3.789c.024.014.042.03.062.046.017.014.037.026.053.041.019.02.033.043.05.065.011.016.026.03.036.048.016.027.025.057.036.085.006.016.015.03.019.047zm-1.077 7.339V9.009L30.6 10.335l-3.181 1.832v6.247l5.485-3.157h-.001zm-6.58 11.3v-6.25l-3.13 1.787-8.935 5.1v6.31l12.065-6.946zM1.097 5.286v21.273l12.064 6.945v-6.31l-6.303-3.566-.002-.001-.002-.001c-.022-.013-.04-.03-.06-.046-.016-.013-.036-.024-.051-.04l-.002-.001c-.018-.018-.03-.039-.045-.058-.014-.018-.03-.034-.041-.053v-.002c-.013-.021-.02-.046-.03-.069-.008-.02-.02-.04-.025-.062-.007-.026-.009-.054-.011-.08-.003-.02-.009-.041-.009-.062V8.442L3.4 6.61 1.097 5.286zm6.032-4.104L1.647 4.337l5.481 3.156 5.482-3.157-5.482-3.155h.001zm2.852 19.695l3.18-1.83V5.285L10.86 6.61 7.677 8.442v13.76l2.304-1.326zm16.89-15.97L21.39 8.06l5.482 3.156 5.482-3.157-5.482-3.155zm-.548 7.26l-3.182-1.831-2.302-1.326v6.248l3.18 1.83 2.304 1.327v-6.247zM13.708 26.246l8.041-4.59 4.02-2.294-5.478-3.154-6.307 3.631-5.749 3.31 5.473 3.097z"/>
</svg>
