<svg xmlns="http://www.w3.org/2000/svg" width="32" height="32" viewBox="0 0 32 32">
    <g fill="#888" fill-rule="nonzero">
        <path d="M15.982 0C7.155 0 0 7.155 0 15.982c0 8.827 7.155 15.982 15.982 15.982 8.827 0 15.982-7.155 15.982-15.982C31.964 7.155 24.809 0 15.982 0zm7.587 19.901c-5.466 5.465-15.227 3.721-15.227 3.721S6.58 13.88 12.062 8.396c3.04-3.039 8.073-2.913 11.255.251 3.182 3.164 3.29 8.216.252 11.254z"/>
        <path d="M17.816 9.366l-1.564 3.218-3.218 1.564 3.218 1.564 1.564 3.218 1.564-3.218 3.218-1.564-3.218-1.564z"/>
    </g>
</svg>
