<svg xmlns="http://www.w3.org/2000/svg" width="44" height="23" viewBox="0 0 44 23">
    <g fill="none" fill-rule="nonzero">
        <path fill="#4F4F4F" d="M0 20.794h1.437V15.12l2.224 4.947c.263.598.622.81 1.326.81.705 0 1.05-.212 1.313-.81l2.224-4.947v5.674h1.437V15.13c0-.553-.221-.82-.677-.958-1.092-.34-1.824-.046-2.156.691l-2.182 4.882-2.114-4.882c-.317-.737-1.063-1.032-2.155-.691-.456.138-.677.405-.677.958v5.664zm11.156-4.618h1.436V19.3c-.013.17.055.569.842.581.401.007 3.099 0 3.124 0V16.16h1.44c.007 0-.001 5.076-.001 5.097.007 1.252-1.554 1.524-2.273 1.545h-4.537v-.967h4.545c.925-.098.815-.557.815-.712v-.377h-3.053c-1.421-.013-2.326-.633-2.338-1.346 0-.066.031-3.193 0-3.224z"/>
        <path fill="#A4A4A4" d="M19.106 20.794h4.13a3.19 3.19 0 0 0 1.327-.276c.622-.285.925-.672.925-1.18V18.29c0-.414-.345-.802-1.022-1.059a3.528 3.528 0 0 0-1.23-.212h-1.74c-.58 0-.857-.174-.926-.561-.014-.046-.014-.083-.014-.13v-.653c0-.037 0-.074.014-.12.069-.295.22-.378.732-.424l.138-.009h4.104v-.957H21.51c-.58 0-.885.036-1.16.12-.857.266-1.23.69-1.23 1.427v.838c0 .645.732 1.197 1.961 1.326.139.009.276.019.415.019h1.492c.055 0 .11 0 .152.009.456.036.65.12.788.285.082.083.11.166.11.258v.838c0 .101-.07.23-.207.34-.124.111-.332.185-.608.203l-.152.01h-3.965v.957zm15.346-1.667c0 .985.732 1.538 2.21 1.649.138.009.276.018.415.018h3.744v-.957h-3.772c-.842 0-1.16-.212-1.16-.72v-4.954h-1.437v4.964zm-8.047.05v-3.415c0-.867.61-1.394 1.814-1.56.125-.018.263-.028.388-.028h2.727c.139 0 .263.01.401.028 1.205.166 1.814.692 1.814 1.56v3.415c0 .704-.259 1.08-.855 1.326l1.416 1.278H32.44l-1.145-1.034-1.152.073h-1.537c-.263 0-.54-.037-.845-.12-.913-.249-1.357-.73-1.357-1.523zm1.551-.083c0 .046.014.093.028.148.083.397.457.618 1.024.618h1.305l-1.199-1.082h1.669l1.045.944a.681.681 0 0 0 .364-.461c.014-.047.014-.093.014-.139v-3.276c0-.037 0-.083-.014-.13-.083-.369-.457-.58-1.01-.58h-2.174c-.637 0-1.052.276-1.052.71v3.248z"/>
        <path fill="#4F4F4F" d="M42.085 12.573c-.883-.024-1.558.058-2.135.301-.164.07-.425.071-.452.277.09.095.104.235.176.352.137.222.37.521.577.677.227.171.46.355.704.503.432.264.914.414 1.33.678.246.156.49.352.729.527.119.087.198.222.352.276v-.024c-.081-.103-.102-.245-.176-.352l-.327-.327a5.346 5.346 0 0 0-1.155-1.105c-.344-.246-1.112-.58-1.256-.98l-.025-.024c.243-.028.529-.116.753-.176.378-.101.716-.075 1.105-.176l.528-.151v-.1c-.197-.202-.338-.47-.553-.653a16.167 16.167 0 0 0-1.808-1.357c-.35-.22-.784-.364-1.155-.552-.125-.063-.344-.096-.427-.2-.196-.25-.302-.565-.453-.855a32.548 32.548 0 0 1-.904-1.908c-.19-.436-.314-.865-.552-1.256-1.14-1.875-2.368-3.007-4.27-4.119-.404-.236-.891-.33-1.405-.451l-.83-.05c-.168-.071-.343-.277-.502-.378-.63-.397-2.245-1.263-2.712-.125-.295.719.44 1.42.703 1.784.185.255.421.54.553.828.087.189.101.378.176.578.182.492.341 1.027.577 1.481.12.23.251.473.402.678.092.126.251.182.276.377-.155.217-.164.554-.251.829-.393 1.237-.245 2.776.326 3.692.176.281.588.884 1.156.653.496-.203.385-.829.527-1.382.033-.125.013-.217.076-.301v.025l.452.904c.334.54.928 1.102 1.431 1.482.261.197.467.538.804.653V13.1h-.025c-.066-.101-.168-.143-.251-.226a5.707 5.707 0 0 1-.578-.652 15.27 15.27 0 0 1-1.23-2.01c-.176-.337-.33-.71-.478-1.054-.057-.133-.056-.334-.175-.402-.163.252-.402.456-.528.753-.2.476-.226 1.056-.301 1.658l-.05.025c-.35-.085-.473-.445-.603-.754-.329-.78-.39-2.039-.1-2.938.074-.233.412-.965.275-1.18-.065-.215-.28-.339-.401-.503a3.925 3.925 0 0 1-.402-.703c-.27-.61-.395-1.293-.678-1.909-.135-.294-.364-.592-.552-.853-.208-.29-.442-.504-.603-.854-.058-.125-.136-.325-.05-.453.026-.086.065-.122.15-.15.146-.113.552.037.703.1.403.167.74.327 1.08.553.164.108.33.318.528.376h.226c.354.081.75.025 1.08.125.584.178 1.107.454 1.582.754a9.8 9.8 0 0 1 3.44 3.767c.13.25.187.489.302.754.231.534.523 1.084.753 1.607.23.521.454 1.048.779 1.482.17.228.83.35 1.13.477.21.089.554.181.753.3.38.23.749.503 1.105.755.178.126.726.401.754.628zM30.859 3.005a1.792 1.792 0 0 0-.452.05v.025h.025c.088.181.243.297.351.453l.252.527.025-.025c.155-.11.226-.285.226-.552-.063-.066-.072-.148-.126-.226-.071-.105-.21-.164-.301-.252z"/>
    </g>
</svg>
