<svg xmlns="http://www.w3.org/2000/svg" width="47" height="24" viewBox="0 0 47 24">
    <g fill="#606060" fill-rule="nonzero">
        <path d="M3.712 4.958h6.957c2.042.017 3.522.606 4.44 1.765.917 1.16 1.22 2.743.908 4.751a9.112 9.112 0 0 1-.805 2.7 8.025 8.025 0 0 1-1.661 2.388c-.866.9-1.791 1.47-2.778 1.713-.986.243-2.008.364-3.063.364H4.595l-.987 4.932H0L3.712 4.958m3.037 2.96l-1.557 7.787c.104.017.208.026.311.026h.364c1.661.017 3.046-.147 4.153-.493 1.108-.363 1.852-1.627 2.233-3.79.311-1.817 0-2.864-.935-3.141-.917-.277-2.068-.407-3.452-.39a7.267 7.267 0 0 1-.597.027h-.546l.026-.026M20.127 0h3.583l-1.013 4.958h3.22c1.764.035 3.08.398 3.945 1.09.882.693 1.142 2.008.779 3.946L28.9 18.64h-3.634l1.661-8.255c.173-.866.121-1.48-.155-1.843-.277-.364-.874-.546-1.791-.546L22.1 7.97l-2.129 10.67H16.39L20.127 0M34.488 4.958h6.957c2.042.017 3.521.606 4.439 1.765.917 1.16 1.22 2.743.908 4.751a9.112 9.112 0 0 1-.805 2.7 8.025 8.025 0 0 1-1.661 2.388c-.865.9-1.791 1.47-2.778 1.713-.986.243-2.007.364-3.063.364H35.37l-.986 4.932h-3.609l3.713-18.613m3.037 2.96l-1.558 7.787c.104.017.208.026.312.026h.363c1.662.017 3.046-.147 4.154-.493 1.107-.363 1.852-1.627 2.232-3.79.312-1.817 0-2.864-.934-3.141-.918-.277-2.068-.407-3.453-.39a7.267 7.267 0 0 1-.597.027h-.545l.026-.026"/>
    </g>
</svg>
