<svg xmlns="http://www.w3.org/2000/svg" width="36" height="37" viewBox="0 0 36 37">
    <g fill="none" fill-rule="evenodd">
        <path fill="#FFF" fill-rule="nonzero" stroke="#464646" stroke-width="3.022" d="M26.663 26.746c.229-1.908.16-2.187 1.58-1.878l.362.031c1.092.05 2.52-.175 3.36-.565 1.807-.839 2.879-2.239 1.097-1.87-4.065.838-4.344-.539-4.344-.539 4.292-6.368 6.086-14.451 4.537-16.43C29.031.098 21.72 2.65 21.598 2.717l-.04.007a14.488 14.488 0 0 0-2.71-.283c-1.84-.03-3.236.483-4.294 1.286 0 0-13.043-5.374-12.437 6.757.13 2.581 3.7 19.528 7.958 14.41 1.556-1.873 3.06-3.455 3.06-3.455.747.496 1.64.75 2.579.658l.072-.062c-.023.233-.013.46.03.73-1.098 1.225-.775 1.44-2.968 1.891-2.22.458-.916 1.272-.065 1.485 1.032.258 3.419.623 5.032-1.635l-.064.258c.43.344.401 2.474.462 3.996.061 1.522.163 2.942.473 3.78.31.837.677 2.993 3.559 2.376 2.408-.516 4.25-1.26 4.418-8.17"/>
        <path fill="#8C8C8C" fill-rule="nonzero" d="M33.062 22.463c-4.065.838-4.344-.538-4.344-.538 4.292-6.368 6.086-14.452 4.538-16.43C29.032.098 21.72 2.65 21.598 2.717l-.04.007a14.496 14.496 0 0 0-2.711-.283c-1.84-.03-3.235.482-4.293 1.285 0 0-13.044-5.373-12.437 6.758.13 2.581 3.7 19.528 7.957 14.41 1.557-1.873 3.06-3.455 3.06-3.455.747.496 1.642.75 2.579.658l.073-.062c-.023.233-.013.46.029.73-1.097 1.225-.775 1.44-2.968 1.891-2.219.458-.915 1.272-.064 1.485 1.032.258 3.419.623 5.032-1.635l-.065.258c.43.344.732 2.24.681 3.957-.05 1.718-.084 2.897.255 3.819.338.92.676 2.993 3.559 2.376 2.408-.516 3.657-1.854 3.83-4.085.124-1.587.402-1.352.42-2.77l.224-.672c.258-2.15.04-2.844 1.525-2.521l.36.031c1.093.05 2.522-.175 3.361-.565 1.807-.839 2.878-2.239 1.097-1.871z"/>
        <path stroke="#FFF" stroke-linecap="round" stroke-linejoin="round" stroke-width="1.007" d="M17.99 23.696c-.113 4.001.027 8.03.419 9.01.392.979 1.23 2.883 4.113 2.266 2.409-.517 3.285-1.516 3.665-3.722.28-1.622.82-6.13.89-7.053M14.534 3.637S1.48-1.698 2.088 10.434c.13 2.58 3.7 19.528 7.958 14.409a70.683 70.683 0 0 1 2.963-3.34M21.584 2.663c-.452.142 7.26-2.82 11.643 2.781 1.548 1.979-.246 10.063-4.537 16.431"/>
        <path stroke="#FFF" stroke-linecap="round" stroke-linejoin="bevel" stroke-width="1.007" d="M28.69 21.875s.28 1.377 4.344.538c1.781-.368.71 1.032-1.097 1.87-1.483.689-4.806.865-4.86-.086-.14-2.453 1.749-1.707 1.613-2.322-.124-.554-.968-1.097-1.527-2.452-.488-1.182-6.69-10.25 1.72-8.903.308-.064-2.194-8-10.065-8.13-7.87-.129-7.611 9.678-7.611 9.678"/>
        <path stroke="#FFF" stroke-linecap="round" stroke-linejoin="round" stroke-width="1.007" d="M15.786 22.714c-1.097 1.225-.774 1.44-2.967 1.892-2.22.458-.916 1.271-.065 1.484 1.032.258 3.419.624 5.032-1.634.491-.688-.003-1.785-.678-2.065-.326-.135-.762-.304-1.322.323z"/>
        <path stroke="#FFF" stroke-linecap="round" stroke-linejoin="round" stroke-width="1.007" d="M15.714 22.692c-.11-.72.237-1.578.61-2.58.559-1.506 1.85-3.011.817-7.786-.77-3.558-5.931-.74-5.934-.258-.004.483.233 2.446-.087 4.731-.417 2.983 1.898 5.506 4.564 5.248"/>
        <path fill="#FFF" fill-rule="nonzero" stroke="#FFF" stroke-width=".5" d="M14.486 11.996c-.023.165.302.604.726.663.423.06.785-.284.807-.45.023-.164-.301-.345-.725-.404-.423-.06-.785.027-.808.191zM27.369 11.66c.023.165-.302.604-.725.663-.424.06-.786-.284-.809-.449-.022-.165.302-.346.726-.405.423-.06.785.027.808.191z"/>
        <path stroke="#FFF" stroke-linecap="round" stroke-linejoin="round" stroke-width="1.007" d="M28.883 10.52c.07 1.292-.278 2.173-.322 3.548-.065 2 .953 4.29-.581 6.581"/>
    </g>
</svg>
