<svg xmlns="http://www.w3.org/2000/svg" width="36" height="32" viewBox="0 0 36 32">
    <g fill="#888" fill-rule="nonzero" transform="translate(.051)">
        <path d="M35.898 15.988c0-2.378-2.978-4.632-7.544-6.03 1.053-4.653.585-8.356-1.478-9.54-.476-.279-1.032-.41-1.64-.41v1.631c.337 0 .608.066.835.19.995.571 1.427 2.744 1.09 5.54-.08.687-.212 1.411-.373 2.15a35.46 35.46 0 0 0-4.647-.797 35.693 35.693 0 0 0-3.043-3.659c2.385-2.217 4.624-3.431 6.146-3.431V0c-2.012 0-4.646 1.434-7.31 3.922-2.663-2.473-5.297-3.893-7.31-3.893v1.632c1.515 0 3.761 1.207 6.147 3.41a34.56 34.56 0 0 0-3.022 3.651c-1.654.176-3.22.446-4.654.805a22.075 22.075 0 0 1-.38-2.122c-.344-2.795.08-4.968 1.068-5.546.22-.132.505-.19.841-.19V.036c-.614 0-1.17.131-1.653.41-2.056 1.185-2.517 4.88-1.456 9.519C2.963 11.37 0 13.617 0 15.988c0 2.378 2.978 4.632 7.544 6.03-1.054 4.653-.585 8.355 1.478 9.54.476.279 1.032.41 1.646.41 2.012 0 4.647-1.434 7.31-3.922 2.663 2.474 5.298 3.893 7.31 3.893.614 0 1.17-.132 1.653-.41 2.057-1.185 2.518-4.88 1.457-9.52 4.536-1.397 7.5-3.65 7.5-6.021zm-9.527-4.88c-.271.943-.608 1.916-.988 2.89-.3-.586-.615-1.171-.959-1.757a39.59 39.59 0 0 0-1.053-1.712c1.039.154 2.041.344 3 .578zM23.02 18.9a38.981 38.981 0 0 1-1.764 2.795 38.072 38.072 0 0 1-6.6.007c-.607-.87-1.2-1.8-1.77-2.78a38.114 38.114 0 0 1-1.523-2.912 38.981 38.981 0 0 1 3.278-5.715 38.072 38.072 0 0 1 6.6-.007 38.114 38.114 0 0 1 3.293 5.693c-.46.98-.966 1.96-1.514 2.919zm2.363-.951c.395.98.732 1.96 1.01 2.912a32.84 32.84 0 0 1-3.015.585c.359-.563.717-1.141 1.054-1.734.336-.585.65-1.178.95-1.763zm-7.42 7.807a30.166 30.166 0 0 1-2.034-2.341c.659.029 1.332.05 2.012.05.688 0 1.369-.014 2.035-.05a28.56 28.56 0 0 1-2.013 2.341zm-5.443-4.31a33.017 33.017 0 0 1-3-.578c.27-.944.607-1.917.987-2.89.3.585.615 1.17.959 1.756.344.586.695 1.156 1.054 1.712zM17.927 6.22c.68.702 1.36 1.485 2.034 2.341a45.296 45.296 0 0 0-2.012-.051c-.688 0-1.369.014-2.034.051a28.56 28.56 0 0 1 2.012-2.341zm-5.415 4.31a40.423 40.423 0 0 0-2.005 3.49 31.358 31.358 0 0 1-1.01-2.913 35.535 35.535 0 0 1 3.015-.578zM5.89 19.69c-2.59-1.105-4.266-2.553-4.266-3.702S3.3 13.383 5.89 12.285c.63-.27 1.317-.512 2.027-.739a35.143 35.143 0 0 0 1.646 4.456 34.647 34.647 0 0 0-1.624 4.435 22.228 22.228 0 0 1-2.049-.747zm3.937 10.456c-.995-.57-1.427-2.744-1.09-5.539.08-.687.212-1.412.373-2.15 1.434.35 3 .621 4.646.797a35.693 35.693 0 0 0 3.044 3.658c-2.385 2.217-4.624 3.432-6.146 3.432-.33-.007-.608-.073-.827-.198zm17.356-5.575c.344 2.795-.08 4.968-1.068 5.546-.22.132-.505.19-.842.19-1.514 0-3.76-1.207-6.146-3.41a34.56 34.56 0 0 0 3.022-3.65 34.169 34.169 0 0 0 4.653-.806c.169.74.3 1.45.38 2.13zM30 19.69c-.63.27-1.317.511-2.027.738a35.143 35.143 0 0 0-1.646-4.456 34.647 34.647 0 0 0 1.624-4.434c.725.227 1.412.476 2.056.746 2.59 1.105 4.266 2.554 4.266 3.703-.007 1.149-1.683 2.605-4.273 3.702z"/>
        <circle cx="17.941" cy="15.988" r="3.344"/>
    </g>
</svg>
