<svg xmlns="http://www.w3.org/2000/svg" width="44" height="19" viewBox="0 0 44 19">
    <g fill="#6F6F6F" fill-rule="evenodd">
        <path d="M44 9.822c0-3.213-1.496-5.748-4.355-5.748-2.87 0-4.608 2.535-4.608 5.723 0 3.777 2.05 5.684 4.994 5.684 1.436 0 2.521-.338 3.342-.815v-2.51c-.82.427-1.762.69-2.956.69-1.17 0-2.207-.427-2.34-1.907h5.899c0-.164.024-.816.024-1.117zM38.04 8.63c0-1.419.833-2.008 1.593-2.008.736 0 1.52.59 1.52 2.008h-3.112zM30.253 4.074c-1.14 0-1.874.57-2.282.968l-.15-.77h-2.562v14.469l2.91-.658.012-3.511c.419.322 1.036.781 2.06.781 2.084 0 3.981-1.787 3.981-5.72-.011-3.598-1.932-5.559-3.97-5.559zm-.699 8.55c-.686 0-1.094-.261-1.373-.584l-.012-4.603c.303-.36.722-.608 1.385-.608 1.06 0 1.793 1.265 1.793 2.89 0 1.664-.722 2.904-1.793 2.904zM23.63 2.574L23.63 0 20.37.672 20.37 3.259zM20.37 4.074H23.629V14.667H20.37zM17.674 5.083l-.207-.885h-2.8v10.469h3.24V7.572c.765-.922 2.062-.754 2.463-.622V4.198c-.414-.144-1.931-.407-2.696.885zM11.723 1.63l-2.749.649-.011 9.995c0 1.847 1.25 3.207 2.918 3.207.923 0 1.6-.187 1.97-.411v-2.534c-.36.163-2.14.737-2.14-1.11v-4.43h2.14V4.338h-2.14l.012-2.708zM2.922 7.471c0-.489.37-.677.981-.677.878 0 1.987.289 2.864.803V4.65c-.958-.414-1.905-.577-2.864-.577C1.56 4.074 0 5.403 0 7.622c0 3.46 4.388 2.908 4.388 4.4 0 .576-.461.764-1.108.764-.959 0-2.183-.426-3.153-1.003v2.984c1.074.501 2.16.714 3.153.714 2.402 0 4.053-1.29 4.053-3.535-.011-3.735-4.411-3.07-4.411-4.475z"/>
    </g>
</svg>
