<?xml version="1.0" encoding="UTF-8"?>
<svg width="33px" height="30px" viewBox="0 0 33 30" version="1.1" xmlns="http://www.w3.org/2000/svg" xmlns:xlink="http://www.w3.org/1999/xlink">
    <!-- Generator: Sketch 62 (91390) - https://sketch.com -->
    <title>Path</title>
    <desc>Created with Sketch.</desc>
    <defs>
        <linearGradient x1="50%" y1="0%" x2="50%" y2="100%" id="linearGradient-1">
            <stop stop-color="#9E9E9E" offset="0%"></stop>
            <stop stop-color="#757575" offset="100%"></stop>
        </linearGradient>
    </defs>
    <g id="Ossur" stroke="none" stroke-width="1" fill="none" fill-rule="evenodd">
        <g id="1440_Cases_Project_Ossur" transform="translate(-731.000000, -639.000000)" fill="url(#linearGradient-1)" fill-rule="nonzero">
            <g id="Group-5" transform="translate(708.000000, 632.000000)">
                <path d="M47.9041667,34.5390833 C44.015,36.78575 38.6675,37.0165833 33.2875,34.71075 C28.9314167,32.8574167 25.317,29.61325 23,25.9065833 C24.1121667,26.83325 25.4096667,27.5749167 26.7998333,28.22325 C32.3558333,30.8274167 37.9106667,30.6490833 41.8198333,28.2299167 C41.8173333,28.2274167 41.8156667,28.22575 41.814,28.22325 C36.2531667,23.9599167 31.5265,18.3990833 28.0048333,13.85825 C27.2630833,13.11675 26.707,12.1899167 26.1509167,11.3558333 C30.4141667,15.2483333 37.1800833,20.16 39.58925,21.5508333 C34.4925833,16.175 29.9509167,9.5025 30.1359167,9.6875 C38.19925,17.8433333 45.70675,22.4775 45.70675,22.4775 C45.9550833,22.6175 46.14675,22.7341667 46.3009167,22.8383333 C46.4634167,22.425 46.6059167,21.9958333 46.7259167,21.5508333 C48.0234167,16.8241667 46.5409167,11.4483333 43.29675,7 C50.8034167,11.54125 55.2525833,20.0675 53.3984167,27.2041667 C53.3500833,27.3966667 53.2975833,27.5866667 53.2409167,27.7733333 C53.2625833,27.7991667 53.28425,27.8258333 53.3059167,27.8533333 C57.0125833,32.4875 55.9934167,37.3991667 55.5300833,36.4725 C53.51925,32.5375 49.79675,33.7408333 47.90425,34.5391667 L47.9041667,34.5390833 Z" id="Path"></path>
            </g>
        </g>
    </g>
</svg>