<svg xmlns="http://www.w3.org/2000/svg" width="32" height="32" viewBox="0 0 32 32">
    <path fill="#666" fill-rule="evenodd" d="M15.74 2.205c3.53 0 6.745 1.353 9.155 3.568-1.181-.031-2.36.67-2.409 2.278-.099 3.25 3.887 3.943 1.74 10.48l-1.777 5.408L17.61 9.687c-.075-.221.012-.347.284-.347h1.368c.07 0 .129-.06.129-.135v-.81c0-.074-.059-.138-.13-.135-2.59.113-5.165.114-7.725 0-.071-.003-.13.061-.13.135v.81c0 .075.06.136.13.136h1.376c.305 0 .391.102.463.299l1.988 5.437-2.99 9.03-4.916-14.48c-.061-.181.013-.286.188-.286h1.567c.07 0 .129-.061.129-.135v-.81c0-.075-.058-.14-.13-.136-1.643.088-3.294.105-4.832.121 2.413-3.717 6.6-6.176 11.36-6.176zm11.904 7.09a13.47 13.47 0 0 1 1.63 6.444c0 5.12-2.844 9.576-7.038 11.876l4.22-11.956c.655-1.85 1.262-4.35 1.187-6.364zm-7.373 19.2a13.493 13.493 0 0 1-4.531.779c-1.37 0-2.69-.204-3.937-.582l4.17-11.95 4.298 11.754v-.001zm-10.323-.52C5.371 25.803 2.205 21.14 2.205 15.74c0-2.002.436-3.903 1.216-5.613L9.95 27.975zM15.74.934c8.175 0 14.805 6.63 14.805 14.804 0 8.175-6.63 14.804-14.805 14.804-8.174 0-14.804-6.63-14.804-14.804S7.565.935 15.74.935zm0-.936c8.692 0 15.74 7.05 15.74 15.74 0 8.692-7.048 15.74-15.74 15.74C7.048 31.48 0 24.432 0 15.74 0 7.05 7.048 0 15.74 0z"/>
</svg>
