<svg xmlns="http://www.w3.org/2000/svg" width="30" height="32" viewBox="0 0 30 32">
    <defs>
        <linearGradient id="a" x1="50%" x2="50%" y1="0%" y2="99.549%">
            <stop offset="0%" stop-color="#A5A5A5"/>
            <stop offset="100%" stop-color="#D2D2D2"/>
        </linearGradient>
        <linearGradient id="b" x1="84.098%" x2="13.584%" y1="27.037%" y2="100%">
            <stop offset="0%" stop-color="#D3D3D3"/>
            <stop offset="100%" stop-color="#858585"/>
        </linearGradient>
        <linearGradient id="c" x1="0%" x2="85.884%" y1="6.32%" y2="69.935%">
            <stop offset="0%" stop-color="#8D8D8D"/>
            <stop offset="100%" stop-color="#DADADA"/>
        </linearGradient>
        <linearGradient id="d" x1="30.961%" x2="86.77%" y1="30.993%" y2="81.746%">
            <stop offset="0%" stop-color="#AEAEAE"/>
            <stop offset="100%" stop-color="#818181"/>
        </linearGradient>
    </defs>
    <g fill="none" fill-rule="nonzero">
        <path fill="url(#a)" d="M25.907 0c2.172 1.107 4.038 4.012 3.945 7.954-.284 4.856-3.806 9.042-7.637 12.898-.214-4.703-1.237-7.7-2.834-11.914C17.874 4.69 22.281.136 25.907 0z"/>
        <path fill="url(#b)" d="M14.157 20.687c1.166-1.451 1.993-2.743 2.57-3.91 3.952 2.066 3.02 1.68 4.926 3.882l.018.204c.158 3.053-2.069 10.11-10.837 11.077-.607-4.742 1.366-8.787 3.323-11.253z"/>
        <path fill="url(#c)" d="M.046 2.949c6.247-2.473 12.971.06 16.853 5.336.375.51.732 1.04 1.067 1.587.607 3.872.145 6.022-1.036 7.162a22.78 22.78 0 0 0-2.489-1.06c-2.055-.747-3.953-1.241-6.662-2.043C1.345 12.175-.24 6.658.046 2.949z"/>
        <path fill="url(#d)" d="M17.728 9.493l.121.19.05.08c.1.16.198.323.295.486l.016.028.026.044.024.041.07.12.004.008.094.165.003.005c.068.12.135.24.201.362l.008.015.074.136.002.004.08.15.023.045.045.087.055.106.053.103c.054.107.108.214.16.321l.014.027c.095.194.187.389.277.585l.068.15.007.015.044.097.05.116.03.066.046.107.033.076.07.165.005.012.075.18.009.02c.08.195.157.388.231.584l.008.018.061.163.004.01.036.096.117.321.015.042.125.36.013.039c.038.113.075.225.111.338l.018.056.004.013.058.182.003.009.053.174.054.18.001.004.045.152.013.049.027.094.09.325.021.08.042.16.002.009c.051.196.1.393.145.59l.005.02.005.02c.06.259.114.517.165.774l.005.025c.078.4.145.797.2 1.191l.001.006c.018.121.033.242.048.363l.007.052.02.173.017.16.006.054.013.127.004.05.002.021.016.174c-1.38-1.777-3.03-3.002-5.008-3.96 1.597-3.157 1.373-5.407 1.065-7.41"/>
    </g>
</svg>
